<?xml version="1.0" encoding="UTF-8"?>
<!DOCTYPE svg PUBLIC "-//W3C//DTD SVG 1.1//EN" "http://www.w3.org/Graphics/SVG/1.1/DTD/svg11.dtd">
<svg xmlns="http://www.w3.org/2000/svg" version="1.1" width="4500px" height="1487px" style="shape-rendering:geometricPrecision; text-rendering:geometricPrecision; image-rendering:optimizeQuality; fill-rule:evenodd; clip-rule:evenodd" xmlns:xlink="http://www.w3.org/1999/xlink">
<g><path style="opacity:0.991" fill="#fefffe" d="M 493.5,115.5 C 538.083,112.61 569.916,131.277 589,171.5C 597.737,198.789 594.737,224.789 580,249.5C 575.245,256.676 570.245,263.676 565,270.5C 521.667,314.5 478.333,358.5 435,402.5C 369.367,481.065 352.7,569.065 385,666.5C 419.836,749.668 480.67,803.501 567.5,828C 654.173,846.331 731.507,827.331 799.5,771C 854.752,716.749 909.752,662.082 964.5,607C 1002.25,569.568 1044.25,537.901 1090.5,512C 1186.99,460.946 1287.99,449.612 1393.5,478C 1603.2,539.064 1715.54,678.731 1730.5,897C 1728.49,1012.08 1690.66,1113.24 1617,1200.5C 1573.23,1250.27 1526.73,1297.44 1477.5,1342C 1463.82,1352.84 1448.49,1360.51 1431.5,1365C 1395.52,1370.59 1366.35,1359.09 1344,1330.5C 1324.06,1304.49 1320.06,1276.16 1332,1245.5C 1340.29,1227.91 1351.29,1212.24 1365,1198.5C 1401,1161.83 1437,1125.17 1473,1088.5C 1547.72,1007.23 1567.06,914.232 1531,809.5C 1489.4,714.918 1417.23,661.085 1314.5,648C 1239.19,642.884 1172.85,664.55 1115.5,713C 1064.89,763.613 1014.22,814.279 963.5,865C 937.299,890.212 909.632,913.545 880.5,935C 753.616,1021.69 617.616,1039.36 472.5,988C 380.238,950.066 307.072,889.233 253,805.5C 188.084,696.414 172.084,580.414 205,457.5C 227.784,379.89 267.451,312.556 324,255.5C 362.223,216.609 401.057,178.443 440.5,141C 456.138,128.18 473.804,119.68 493.5,115.5 Z"/></g>
<g><path style="opacity:0.989" fill="#fefffe" d="M 1231.5,115.5 C 1377.35,105.835 1515.35,134.002 1645.5,200C 1662.4,209.233 1677.23,221.066 1690,235.5C 1714.35,270.894 1714.01,306.227 1689,341.5C 1667.6,368.6 1639.77,379.1 1605.5,373C 1594.2,371.092 1583.2,368.092 1572.5,364C 1497.36,328.131 1418.36,305.798 1335.5,297C 1213.93,286.477 1100.27,311.477 994.5,372C 949.296,398.608 907.296,429.608 868.5,465C 819.86,513.973 770.86,562.64 721.5,611C 711.5,620.333 701.5,629.667 691.5,639C 659.044,667.493 623.377,672.16 584.5,653C 547.62,628.39 533.453,594.223 542,550.5C 544.485,541.693 548.485,533.693 554,526.5C 604.406,471.757 655.906,417.924 708.5,365C 757.774,316.364 811.108,273.031 868.5,235C 962.041,177.034 1063.37,139.367 1172.5,122C 1192.27,119.341 1211.93,117.174 1231.5,115.5 Z"/></g>
<g><path style="opacity:0.973" fill="#fefffe" d="M 2107.5,396.5 C 2145.77,394.283 2183.1,399.117 2219.5,411C 2226.38,413.842 2232.21,418.009 2237,423.5C 2237.95,438.021 2234.95,451.688 2228,464.5C 2226.5,467.333 2224.33,469.5 2221.5,471C 2216.79,471.496 2212.13,471.162 2207.5,470C 2175.84,460.334 2143.51,456.667 2110.5,459C 2100.26,459.643 2090.59,462.31 2081.5,467C 2070.23,474.543 2067.39,484.376 2073,496.5C 2080.95,504.392 2090.45,509.559 2101.5,512C 2132.95,520.279 2163.95,529.946 2194.5,541C 2234.53,557.883 2253.03,588.049 2250,631.5C 2248.77,666.494 2232.93,692.328 2202.5,709C 2173.05,722.89 2142.05,728.556 2109.5,726C 2073.09,725.386 2038.42,717.386 2005.5,702C 2001.39,699.552 1997.55,696.719 1994,693.5C 1992.66,690.991 1991.83,688.324 1991.5,685.5C 1992.91,671.093 1997.41,657.759 2005,645.5C 2009.84,641.121 2015.34,640.288 2021.5,643C 2041.29,650.156 2061.46,655.989 2082,660.5C 2107.57,665.882 2133.07,665.716 2158.5,660C 2174.42,654.232 2180.59,643.065 2177,626.5C 2174.74,620.228 2170.9,615.061 2165.5,611C 2158.23,606.531 2150.56,602.865 2142.5,600C 2113.94,592.443 2085.61,584.11 2057.5,575C 2010.71,556.608 1991.54,522.442 2000,472.5C 2006.94,443.549 2024.11,423.049 2051.5,411C 2069.59,403.423 2088.25,398.59 2107.5,396.5 Z"/></g>
<g><path style="opacity:0.969" fill="#fefffe" d="M 3268.5,398.5 C 3281.54,398.173 3294.54,398.673 3307.5,400C 3312.15,400.742 3315.98,402.908 3319,406.5C 3361.72,508.506 3403.56,610.839 3444.5,713.5C 3444.44,716.111 3443.44,718.278 3441.5,720C 3434.14,722.946 3426.47,724.112 3418.5,723.5C 3411.02,723.806 3403.68,722.972 3396.5,721C 3394.62,719.457 3393.12,717.624 3392,715.5C 3382.69,691.903 3373.19,668.403 3363.5,645C 3310.16,644.167 3256.83,644.333 3203.5,645.5C 3193.84,670.668 3183.5,695.501 3172.5,720C 3169.75,721.75 3166.75,722.75 3163.5,723C 3154.5,723.667 3145.5,723.667 3136.5,723C 3125.12,721.947 3121.62,716.114 3126,705.5C 3167.06,605.719 3208.39,506.052 3250,406.5C 3255.24,401.494 3261.4,398.827 3268.5,398.5 Z M 3283.5,440.5 C 3304.44,494.403 3325.44,548.403 3346.5,602.5C 3304.83,602.5 3263.17,602.5 3221.5,602.5C 3238.83,557.337 3256.67,512.337 3275,467.5C 3278.55,458.689 3281.38,449.689 3283.5,440.5 Z"/></g>
<g><path style="opacity:0.969" fill="#fefffe" d="M 4134.5,398.5 C 4147.54,398.173 4160.54,398.673 4173.5,400C 4178.16,400.746 4182,402.913 4185,406.5C 4227.72,508.488 4269.55,610.822 4310.5,713.5C 4308.81,719.332 4304.81,722.499 4298.5,723C 4289.17,723.667 4279.83,723.667 4270.5,723C 4263.79,722.957 4259.29,719.79 4257,713.5C 4247.96,690.595 4238.8,667.762 4229.5,645C 4176.16,644.167 4122.83,644.333 4069.5,645.5C 4059.55,670.551 4049.22,695.384 4038.5,720C 4035.75,721.75 4032.75,722.75 4029.5,723C 4020.5,723.667 4011.5,723.667 4002.5,723C 3991.12,721.947 3987.62,716.114 3992,705.5C 4032.67,606.833 4073.33,508.167 4114,409.5C 4118.97,402.264 4125.81,398.598 4134.5,398.5 Z M 4149.5,439.5 C 4169.68,493.704 4190.68,547.704 4212.5,601.5C 4170.5,602.667 4128.5,602.833 4086.5,602C 4108.29,549.908 4129.13,497.408 4149,444.5C 4149.49,442.866 4149.66,441.199 4149.5,439.5 Z"/></g>
<g><path style="opacity:0.981" fill="#fefffe" d="M 2348.5,399.5 C 2439.22,399.008 2529.89,399.508 2620.5,401C 2623.87,403.365 2626.04,406.532 2627,410.5C 2629,423.833 2629,437.167 2627,450.5C 2626.06,454.207 2624.23,457.374 2621.5,460C 2587.25,461.486 2552.92,461.986 2518.5,461.5C 2518.67,545.501 2518.5,629.501 2518,713.5C 2515.58,718.256 2511.74,721.09 2506.5,722C 2492.55,723.575 2478.55,723.909 2464.5,723C 2456.48,722.915 2450.64,719.415 2447,712.5C 2446.5,628.834 2446.33,545.167 2446.5,461.5C 2413.17,461.667 2379.83,461.5 2346.5,461C 2341.81,458.629 2338.98,454.796 2338,449.5C 2337.33,437.167 2337.33,424.833 2338,412.5C 2338.83,405.851 2342.33,401.518 2348.5,399.5 Z"/></g>
<g><path style="opacity:0.979" fill="#fefffe" d="M 2757.5,399.5 C 2806.5,399.333 2855.5,399.5 2904.5,400C 2928.96,400.532 2951.96,406.532 2973.5,418C 3000.94,436.719 3014.28,462.886 3013.5,496.5C 3012.81,534.828 2994.81,561.161 2959.5,575.5C 2973.24,582.742 2983.41,593.409 2990,607.5C 3003.14,638.582 3016.47,669.582 3030,700.5C 3032.25,705.637 3032.91,710.97 3032,716.5C 3031.53,717.931 3030.7,719.097 3029.5,720C 3026.04,721.743 3022.38,722.743 3018.5,723C 3004.83,723.667 2991.17,723.667 2977.5,723C 2967.24,722.294 2960.41,717.128 2957,707.5C 2944.78,678.165 2931.78,649.165 2918,620.5C 2912.56,611.188 2904.39,606.021 2893.5,605C 2867.84,604.5 2842.17,604.333 2816.5,604.5C 2816.67,640.502 2816.5,676.502 2816,712.5C 2812.35,719.418 2806.51,722.918 2798.5,723C 2786.5,723.667 2774.5,723.667 2762.5,723C 2753.95,722.969 2748.12,719.135 2745,711.5C 2744.33,611.833 2744.33,512.167 2745,412.5C 2746.69,405.644 2750.86,401.311 2757.5,399.5 Z M 2816.5,461.5 C 2843.84,461.333 2871.17,461.5 2898.5,462C 2926.33,462.657 2939.99,476.823 2939.5,504.5C 2940.22,528.935 2928.56,542.768 2904.5,546C 2875.17,546.5 2845.84,546.667 2816.5,546.5C 2816.5,518.167 2816.5,489.833 2816.5,461.5 Z"/></g>
<g><path style="opacity:0.973" fill="#fefffe" d="M 3579.5,399.5 C 3626.83,399.333 3674.17,399.5 3721.5,400C 3836.78,403.945 3891.62,463.445 3886,578.5C 3882.08,648.726 3846.58,693.893 3779.5,714C 3762.78,718.436 3745.78,721.103 3728.5,722C 3678.5,722.667 3628.5,722.667 3578.5,722C 3573.76,720.932 3570.6,718.099 3569,713.5C 3568.33,612.167 3568.33,510.833 3569,409.5C 3570.46,403.871 3573.96,400.538 3579.5,399.5 Z M 3619.5,443.5 C 3656.18,443.105 3692.85,443.605 3729.5,445C 3798.88,452.21 3833.88,490.71 3834.5,560.5C 3834.73,629.427 3800.73,668.261 3732.5,677C 3694.86,678.428 3657.19,678.928 3619.5,678.5C 3619.5,600.167 3619.5,521.833 3619.5,443.5 Z"/></g>
<g><path style="opacity:0.989" fill="#fefffe" d="M 1284.5,814.5 C 1333.93,816.106 1364.76,840.773 1377,888.5C 1381.88,912.938 1377.21,935.271 1363,955.5C 1310.59,1011.58 1257.09,1066.75 1202.5,1121C 1160.94,1161.57 1116.61,1198.57 1069.5,1232C 987.986,1286.97 898.986,1325.31 802.5,1347C 637.728,1382.42 477.395,1368.09 321.5,1304C 295.009,1293.09 269.675,1280.09 245.5,1265C 212.163,1237.85 202.33,1203.68 216,1162.5C 229.484,1129.37 253.984,1109.87 289.5,1104C 303.922,1102.23 317.922,1103.9 331.5,1109C 390.818,1140.66 453.485,1163 519.5,1176C 724.451,1208 902.784,1154 1054.5,1014C 1077.07,991.437 1098.9,968.271 1120,944.5C 1156.89,907.606 1194.39,871.439 1232.5,836C 1247.71,823.556 1265.05,816.389 1284.5,814.5 Z"/></g>
<g><path style="opacity:0.951" fill="#fefffe" d="M 2576.5,875.5 C 2604.88,873.169 2632.21,877.335 2658.5,888C 2686.12,902.98 2701.96,926.147 2706,957.5C 2709.37,981.317 2707.37,1004.65 2700,1027.5C 2687.37,1057.78 2664.87,1075.95 2632.5,1082C 2612.64,1085.35 2592.64,1086.35 2572.5,1085C 2510.17,1078.16 2478.83,1043.33 2478.5,980.5C 2479.51,915.827 2512.18,880.827 2576.5,875.5 Z M 2578.5,904.5 C 2649.99,899.152 2681.16,931.819 2672,1002.5C 2665.64,1032.2 2647.47,1049.7 2617.5,1055C 2595.08,1058.89 2573.08,1057.22 2551.5,1050C 2527.24,1038.7 2514.4,1019.53 2513,992.5C 2510.58,972.133 2513.91,952.8 2523,934.5C 2532.25,920.612 2545.09,911.778 2561.5,908C 2567.3,906.816 2572.97,905.649 2578.5,904.5 Z"/></g>
<g><path style="opacity:0.943" fill="#fefffe" d="M 4222.5,875.5 C 4238.64,874.857 4254.64,876.023 4270.5,879C 4279.91,880.803 4288.91,883.803 4297.5,888C 4300.15,889.633 4301.48,891.967 4301.5,895C 4301.13,902.128 4298.79,908.461 4294.5,914C 4292.17,914.667 4289.83,914.667 4287.5,914C 4266.17,906.048 4244.17,903.048 4221.5,905C 4210.12,905.675 4200.62,910.175 4193,918.5C 4185.32,931.431 4187.48,942.264 4199.5,951C 4205.26,953.922 4211.26,956.255 4217.5,958C 4236.73,962.558 4255.73,967.891 4274.5,974C 4302.32,985.179 4314.16,1005.68 4310,1035.5C 4307.43,1052.72 4298.6,1065.55 4283.5,1074C 4260.67,1084.83 4236.67,1088.5 4211.5,1085C 4193.4,1083.14 4176.06,1078.47 4159.5,1071C 4152.88,1067.81 4150.71,1062.64 4153,1055.5C 4154.11,1051.27 4155.78,1047.27 4158,1043.5C 4159.19,1042.57 4160.53,1041.9 4162,1041.5C 4174.9,1046.47 4188.07,1050.63 4201.5,1054C 4221.71,1059.09 4241.71,1058.42 4261.5,1052C 4275.69,1044.75 4280.52,1033.59 4276,1018.5C 4273.92,1014.42 4271.09,1010.92 4267.5,1008C 4260.57,1004.02 4253.24,1001.02 4245.5,999C 4225.81,994.911 4206.47,989.577 4187.5,983C 4162.48,971.471 4152.32,951.971 4157,924.5C 4161.66,904.17 4173.82,890.336 4193.5,883C 4203.01,879.374 4212.68,876.874 4222.5,875.5 Z"/></g>
<g><path style="opacity:0.968" fill="#fefffe" d="M 3799.5,876.5 C 3805.56,876.338 3811.56,876.838 3817.5,878C 3820.1,878.935 3821.6,880.768 3822,883.5C 3822.67,948.167 3822.67,1012.83 3822,1077.5C 3821.65,1079.85 3820.49,1081.68 3818.5,1083C 3811.23,1084.51 3803.9,1084.85 3796.5,1084C 3793.97,1083.48 3791.8,1082.32 3790,1080.5C 3789.33,1014.17 3789.33,947.833 3790,881.5C 3792.6,878.616 3795.77,876.949 3799.5,876.5 Z"/></g>
<g><path style="opacity:0.956" fill="#fefffe" d="M 1997.5,877.5 C 2030.83,877.333 2064.17,877.5 2097.5,878C 2135.77,880.767 2155.44,901.267 2156.5,939.5C 2156.17,976 2137.83,996.167 2101.5,1000C 2075.84,1000.5 2050.17,1000.67 2024.5,1000.5C 2024.67,1026.84 2024.5,1053.17 2024,1079.5C 2022.66,1082.09 2020.49,1083.59 2017.5,1084C 2011.17,1084.67 2004.83,1084.67 1998.5,1084C 1995.51,1083.59 1993.34,1082.09 1992,1079.5C 1991.33,1014.17 1991.33,948.833 1992,883.5C 1993.02,880.65 1994.85,878.65 1997.5,877.5 Z M 2024.5,906.5 C 2047.84,906.333 2071.17,906.5 2094.5,907C 2114.07,909.065 2123.4,919.898 2122.5,939.5C 2123.09,960.078 2113.09,970.911 2092.5,972C 2069.84,972.5 2047.17,972.667 2024.5,972.5C 2024.5,950.5 2024.5,928.5 2024.5,906.5 Z"/></g>
<g><path style="opacity:0.962" fill="#fefffe" d="M 2243.5,877.5 C 2276.83,877.333 2310.17,877.5 2343.5,878C 2386.35,881.539 2405.85,904.705 2402,947.5C 2398.69,966.323 2388.19,979.156 2370.5,986C 2373.94,987.776 2377.11,989.943 2380,992.5C 2384.76,999.011 2388.76,1006.01 2392,1013.5C 2401.2,1034.6 2409.7,1055.93 2417.5,1077.5C 2417.67,1079.69 2417.01,1081.53 2415.5,1083C 2406.03,1085.29 2396.69,1084.96 2387.5,1082C 2386.33,1080.83 2385.17,1079.67 2384,1078.5C 2375.14,1055.79 2365.47,1033.45 2355,1011.5C 2350.69,1005.59 2344.86,1002.09 2337.5,1001C 2315.17,1000.5 2292.84,1000.33 2270.5,1000.5C 2270.67,1027.17 2270.5,1053.84 2270,1080.5C 2269.17,1081.33 2268.33,1082.17 2267.5,1083C 2260.23,1084.51 2252.9,1084.85 2245.5,1084C 2242.97,1083.48 2240.8,1082.32 2239,1080.5C 2238.33,1014.17 2238.33,947.833 2239,881.5C 2240.4,879.93 2241.9,878.596 2243.5,877.5 Z M 2270.5,906.5 C 2294.17,906.333 2317.84,906.5 2341.5,907C 2360.04,909.544 2369.37,920.211 2369.5,939C 2369.49,959.677 2359.16,970.677 2338.5,972C 2315.84,972.5 2293.17,972.667 2270.5,972.5C 2270.5,950.5 2270.5,928.5 2270.5,906.5 Z"/></g>
<g><path style="opacity:0.958" fill="#fefffe" d="M 2804.5,877.5 C 2837.5,877.333 2870.5,877.5 2903.5,878C 2948.74,882.904 2968.24,908.071 2962,953.5C 2958.04,975.792 2945.21,990.292 2923.5,997C 2918.55,998.256 2913.55,999.256 2908.5,1000C 2882.84,1000.5 2857.17,1000.67 2831.5,1000.5C 2831.67,1026.84 2831.5,1053.17 2831,1079.5C 2826.64,1083.91 2821.31,1085.58 2815,1084.5C 2809.94,1084.82 2805.1,1083.98 2800.5,1082C 2799.87,1081.25 2799.37,1080.42 2799,1079.5C 2798.33,1013.83 2798.33,948.167 2799,882.5C 2800.11,879.887 2801.94,878.22 2804.5,877.5 Z M 2831.5,906.5 C 2854.84,906.333 2878.17,906.5 2901.5,907C 2920.96,909.065 2930.29,919.898 2929.5,939.5C 2929.88,959.899 2919.88,970.732 2899.5,972C 2876.84,972.5 2854.17,972.667 2831.5,972.5C 2831.5,950.5 2831.5,928.5 2831.5,906.5 Z"/></g>
<g><path style="opacity:0.954" fill="#fefffe" d="M 3050.5,877.5 C 3098.17,877.333 3145.83,877.5 3193.5,878C 3194.33,878.833 3195.17,879.667 3196,880.5C 3198,888.167 3198,895.833 3196,903.5C 3195.1,904.701 3193.93,905.535 3192.5,906C 3154.17,906.5 3115.83,906.667 3077.5,906.5C 3077.5,925.5 3077.5,944.5 3077.5,963.5C 3112.83,963.333 3148.17,963.5 3183.5,964C 3185.29,964.785 3186.79,965.951 3188,967.5C 3188.67,974.5 3188.67,981.5 3188,988.5C 3187.53,989.931 3186.7,991.097 3185.5,992C 3149.5,992.5 3113.5,992.667 3077.5,992.5C 3077.5,1013.5 3077.5,1034.5 3077.5,1055.5C 3116.5,1055.33 3155.5,1055.5 3194.5,1056C 3195.7,1056.9 3196.53,1058.07 3197,1059.5C 3197.67,1066.17 3197.67,1072.83 3197,1079.5C 3196.53,1080.93 3195.7,1082.1 3194.5,1083C 3146.17,1083.67 3097.83,1083.67 3049.5,1083C 3046.91,1081.66 3045.41,1079.49 3045,1076.5C 3044.33,1012.83 3044.33,949.167 3045,885.5C 3045.49,881.854 3047.32,879.187 3050.5,877.5 Z"/></g>
<g><path style="opacity:0.953" fill="#fefffe" d="M 3295.5,877.5 C 3328.83,877.333 3362.17,877.5 3395.5,878C 3432.83,880.492 3452.49,900.325 3454.5,937.5C 3454.18,960.669 3443.52,976.835 3422.5,986C 3426.58,988.075 3430.08,990.908 3433,994.5C 3437.17,1000.85 3440.84,1007.51 3444,1014.5C 3453,1035.32 3461.5,1056.32 3469.5,1077.5C 3469.43,1081.41 3467.43,1083.57 3463.5,1084C 3457.17,1084.67 3450.83,1084.67 3444.5,1084C 3441.03,1083.68 3438.19,1082.18 3436,1079.5C 3426.81,1056.12 3416.81,1033.12 3406,1010.5C 3401.78,1005.14 3396.28,1001.97 3389.5,1001C 3367.17,1000.5 3344.84,1000.33 3322.5,1000.5C 3322.67,1026.84 3322.5,1053.17 3322,1079.5C 3320.66,1082.09 3318.49,1083.59 3315.5,1084C 3309.17,1084.67 3302.83,1084.67 3296.5,1084C 3293.51,1083.59 3291.34,1082.09 3290,1079.5C 3289.33,1014.17 3289.33,948.833 3290,883.5C 3290.73,880.309 3292.56,878.309 3295.5,877.5 Z M 3322.5,906.5 C 3347.87,906.058 3373.2,906.558 3398.5,908C 3414.16,912.296 3421.49,922.629 3420.5,939C 3421.33,959.836 3411.33,970.836 3390.5,972C 3367.84,972.5 3345.17,972.667 3322.5,972.5C 3322.5,950.5 3322.5,928.5 3322.5,906.5 Z"/></g>
<g><path style="opacity:0.953" fill="#fefffe" d="M 3529.5,877.5 C 3587.17,877.333 3644.83,877.5 3702.5,878C 3705.53,882.119 3706.87,886.786 3706.5,892C 3706.46,895.57 3705.96,899.07 3705,902.5C 3704.5,904.333 3703.33,905.5 3701.5,906C 3678.5,906.5 3655.5,906.667 3632.5,906.5C 3632.67,963.834 3632.5,1021.17 3632,1078.5C 3631.22,1080.29 3630.05,1081.79 3628.5,1083C 3621.25,1084.56 3613.91,1084.89 3606.5,1084C 3603.51,1083.59 3601.34,1082.09 3600,1079.5C 3599.5,1021.83 3599.33,964.168 3599.5,906.5C 3576.16,906.667 3552.83,906.5 3529.5,906C 3526.07,902.037 3524.74,897.37 3525.5,892C 3524.75,886.434 3526.08,881.6 3529.5,877.5 Z"/></g>
<g><path style="opacity:0.955" fill="#fefffe" d="M 3935.5,877.5 C 3982.83,877.333 4030.17,877.5 4077.5,878C 4078.42,878.374 4079.25,878.874 4080,879.5C 4081.6,887.061 4081.93,894.728 4081,902.5C 4080.5,904.333 4079.33,905.5 4077.5,906C 4039.17,906.5 4000.83,906.667 3962.5,906.5C 3962.5,925.5 3962.5,944.5 3962.5,963.5C 3997.83,963.333 4033.17,963.5 4068.5,964C 4069.93,964.465 4071.1,965.299 4072,966.5C 4073.55,973.418 4073.88,980.418 4073,987.5C 4072.29,989.081 4071.46,990.581 4070.5,992C 4034.5,992.5 3998.5,992.667 3962.5,992.5C 3962.5,1013.5 3962.5,1034.5 3962.5,1055.5C 4001.17,1055.33 4039.83,1055.5 4078.5,1056C 4080.77,1057.51 4081.93,1059.68 4082,1062.5C 4082.8,1068.57 4082.47,1074.57 4081,1080.5C 4080.17,1081.33 4079.33,1082.17 4078.5,1083C 4030.5,1083.67 3982.5,1083.67 3934.5,1083C 3933.07,1082.53 3931.9,1081.7 3931,1080.5C 3929.34,1014.58 3929.01,948.582 3930,882.5C 3931.11,879.887 3932.94,878.22 3935.5,877.5 Z"/></g>
</svg>
