<?xml version="1.0" encoding="utf-8"?>
<!-- Generator: Adobe Illustrator 26.0.1, SVG Export Plug-In . SVG Version: 6.00 Build 0)  -->
<svg version="1.1" id="Layer_1" xmlns="http://www.w3.org/2000/svg" xmlns:xlink="http://www.w3.org/1999/xlink" x="0px" y="0px"
	 viewBox="0 0 1483.29 449.9" style="enable-background:new 0 0 1483.29 449.9;" xml:space="preserve">
<style type="text/css">
	.st0{fill:#003344;}
	.st1{fill:#051822;}
</style>
<g>
	<g>
		<path class="st0" d="M554.58,280.56c-1.27,41.48-13.22,75.23-37.11,104.81c-15.41,19.05-32.95,36.01-50.74,52.71
			c-16.21,15.22-34.65,15.52-47.95,1.82c-13.6-14.02-12.82-31.11,2.89-47.85c14.06-14.99,29.05-29.11,42.9-44.27
			c35.28-38.66,33.3-96.15-4.11-131.78c-36.05-34.33-93.84-33.65-130.62,1.83c-23.12,22.3-44.5,46.59-69.01,67.18
			c-67.42,56.63-159.16,50.64-218.61-12.68c-57.47-61.2-56.17-155,3.28-218.11c13.65-14.49,27.91-28.43,42.32-42.17
			c15.75-14.99,34.72-15.94,48.07-3.11c14.06,13.51,12.9,32.21-3.41,49.13c-13.38,13.86-27.37,27.15-40.67,41.1
			c-36.52,38.3-36.54,95.11-0.29,131.81c36.89,37.35,94.48,37.83,133.25,0.64c21.31-20.46,41.17-42.48,63.07-62.27
			c51.34-46.41,110.56-56.61,173.3-28.74C522,167.64,550.92,218.35,554.58,280.56L554.58,280.56z"/>
		<path class="st0" d="M395.03,0.12c45.42-1.01,86.62,9.88,125.85,28.91c22.78,11.04,30.9,28.19,22.38,45.76
			c-8.91,18.36-26.33,22.7-49.3,12.29c-94.12-42.63-185.06-26.24-258,46.4c-18.64,18.56-36.89,37.58-56.36,55.24
			c-13.21,11.98-31.94,10.63-43.57-0.89c-11.27-11.17-13.95-29.86-2.51-41.93c44.49-46.98,87.09-96.47,148.89-122.59
			C318.93,7.88,356.66-1.12,395.03,0.12L395.03,0.12z"/>
		<path class="st0" d="M163.35,449.9c-52.02-0.47-95.26-11.2-135.81-32.41c-12.92-6.76-21.23-17.32-19.4-32.53
			c1.66-13.81,9.82-23.44,23.38-27.89c8.46-2.77,16.29-1.26,24.11,2.79c97.58,50.51,203.41,22.86,268.79-49.5
			c15.92-17.6,33.15-34.1,50.67-50.13c12.57-11.49,30.27-10.71,42.18-0.03c12.03,10.79,15.11,31.38,3.24,43.57
			c-44.68,45.87-86.19,95.63-147.44,121.79C235.89,441.47,197.35,449.38,163.35,449.9L163.35,449.9z"/>
	</g>
	<g>
		<g>
			<g>
				<path class="st1" d="M653.83,348.22c-1.68,0-2.91-0.23-3.68-0.68c-0.77-0.45-1.16-1.1-1.16-1.94v-67.69
					c0-2.31,1.16-3.47,3.47-3.47h29.64c8.55,0,14.98,1.84,19.29,5.52c4.31,3.68,6.46,9.13,6.46,16.34c0,7.29-2.15,12.75-6.46,16.4
					c-4.31,3.64-10.74,5.47-19.29,5.47h-21.65v27.43c0,0.84-0.37,1.49-1.1,1.94c-0.74,0.46-2.01,0.68-3.84,0.68H653.83z
					 M660.45,308.6h21.65c5.04,0,8.67-0.96,10.88-2.89c2.21-1.93,3.31-5.06,3.31-9.41c0-4.27-1.1-7.37-3.31-9.3
					c-2.21-1.93-5.83-2.89-10.88-2.89h-21.65V308.6z"/>
				<path class="st1" d="M742.54,348.22c-1.68,0-2.91-0.23-3.68-0.68c-0.77-0.45-1.16-1.1-1.16-1.94v-67.69
					c0-2.31,1.12-3.47,3.36-3.47h29.74c8.55,0,14.98,1.8,19.29,5.41c4.31,3.61,6.46,8.95,6.46,16.03c0,2.66-0.51,5.17-1.52,7.51
					c-1.02,2.35-2.42,4.35-4.2,5.99c-1.79,1.65-3.94,2.79-6.46,3.42v0.42c1.96,0.63,3.63,1.94,4.99,3.94c1.37,2,2.64,4.47,3.84,7.41
					l8.3,19.76c0.21,0.35,0.35,0.72,0.42,1.1c0.07,0.39,0.11,0.68,0.11,0.89c0,0.63-0.37,1.1-1.1,1.42
					c-0.74,0.32-1.98,0.47-3.73,0.47h-2c-1.19,0-2.23-0.18-3.1-0.52c-0.88-0.35-1.52-0.98-1.94-1.89l-7.67-18.5
					c-0.98-2.45-1.96-4.34-2.94-5.67c-0.98-1.33-2.19-2.28-3.63-2.84c-1.44-0.56-3.31-0.84-5.62-0.84h-21.13v27.64
					c0,0.84-0.37,1.49-1.1,1.94c-0.74,0.46-2.01,0.68-3.84,0.68H742.54z M749.16,308.6h21.65c5.04,0,8.67-0.96,10.88-2.89
					c2.21-1.93,3.31-5.06,3.31-9.41c0-4.27-1.1-7.37-3.31-9.3c-2.21-1.93-5.83-2.89-10.88-2.89h-21.65V308.6z"/>
				<path class="st1" d="M865.29,348.74c-13.38,0-23.54-3.19-30.48-9.56c-6.94-6.38-10.4-15.73-10.4-28.06
					c0-12.33,3.47-21.65,10.4-27.96c6.94-6.31,17.1-9.46,30.48-9.46c13.45,0,23.65,3.15,30.58,9.46
					c6.94,6.31,10.41,15.63,10.41,27.96c0,12.33-3.47,21.69-10.41,28.06C888.94,345.56,878.75,348.74,865.29,348.74z M865.29,339.07
					c9.67,0,16.97-2.24,21.91-6.73c4.94-4.48,7.41-11.59,7.41-21.33c0-9.6-2.47-16.61-7.41-21.02c-4.94-4.41-12.24-6.62-21.91-6.62
					c-9.6,0-16.87,2.21-21.81,6.62c-4.94,4.42-7.41,11.42-7.41,21.02c0,9.74,2.47,16.85,7.41,21.33
					C848.43,336.83,855.69,339.07,865.29,339.07z"/>
				<path class="st1" d="M944.23,348.22c-1.68,0-2.91-0.23-3.68-0.68c-0.77-0.45-1.16-1.1-1.16-1.94v-67.69
					c0-2.31,1.16-3.47,3.47-3.47h29.64c8.55,0,14.98,1.84,19.29,5.52c4.31,3.68,6.46,9.13,6.46,16.34c0,7.29-2.15,12.75-6.46,16.4
					c-4.31,3.64-10.74,5.47-19.29,5.47h-21.65v27.43c0,0.84-0.37,1.49-1.1,1.94c-0.74,0.46-2.01,0.68-3.84,0.68H944.23z
					 M950.85,308.6h21.65c5.04,0,8.67-0.96,10.88-2.89c2.21-1.93,3.31-5.06,3.31-9.41c0-4.27-1.1-7.37-3.31-9.3
					c-2.21-1.93-5.83-2.89-10.88-2.89h-21.65V308.6z"/>
				<path class="st1" d="M1031.56,348.01c-2.31,0-3.47-1.16-3.47-3.47v-66.63c0-2.31,1.16-3.47,3.47-3.47h48.66
					c1.61,0,2.42,1.26,2.42,3.78v2.1c0,2.52-0.81,3.78-2.42,3.78h-40.67v21.44h37.73c1.54,0,2.31,1.26,2.31,3.78v2.1
					c0,2.52-0.77,3.79-2.31,3.79h-37.73v23.12h40.78c1.61,0,2.42,1.26,2.42,3.78v2.1c0,2.52-0.81,3.78-2.42,3.78H1031.56z"/>
				<path class="st1" d="M1121,348.22c-1.68,0-2.91-0.23-3.68-0.68c-0.77-0.45-1.16-1.1-1.16-1.94v-67.69
					c0-2.31,1.12-3.47,3.36-3.47h29.74c8.55,0,14.98,1.8,19.29,5.41c4.31,3.61,6.46,8.95,6.46,16.03c0,2.66-0.51,5.17-1.52,7.51
					c-1.02,2.35-2.42,4.35-4.2,5.99c-1.79,1.65-3.94,2.79-6.46,3.42v0.42c1.96,0.63,3.63,1.94,4.99,3.94c1.37,2,2.64,4.47,3.84,7.41
					l8.3,19.76c0.21,0.35,0.35,0.72,0.42,1.1c0.07,0.39,0.11,0.68,0.11,0.89c0,0.63-0.37,1.1-1.1,1.42
					c-0.74,0.32-1.98,0.47-3.73,0.47h-2c-1.19,0-2.23-0.18-3.1-0.52c-0.88-0.35-1.52-0.98-1.94-1.89l-7.67-18.5
					c-0.98-2.45-1.96-4.34-2.94-5.67c-0.98-1.33-2.19-2.28-3.63-2.84c-1.44-0.56-3.31-0.84-5.62-0.84h-21.13v27.64
					c0,0.84-0.37,1.49-1.1,1.94c-0.74,0.46-2.01,0.68-3.84,0.68H1121z M1127.63,308.6h21.65c5.04,0,8.67-0.96,10.88-2.89
					c2.21-1.93,3.31-5.06,3.31-9.41c0-4.27-1.1-7.37-3.31-9.3c-2.21-1.93-5.83-2.89-10.88-2.89h-21.65V308.6z"/>
				<path class="st1" d="M1232.41,348.22c-1.61,0-2.8-0.23-3.57-0.68c-0.77-0.45-1.16-1.1-1.16-1.94v-61.49h-24.28
					c-1.54,0-2.31-1.26-2.31-3.78v-2.1c0-2.52,0.77-3.78,2.31-3.78h60.01c1.54,0,2.31,1.26,2.31,3.78v2.1
					c0,2.52-0.77,3.78-2.31,3.78h-24.28v61.49c0,0.84-0.37,1.49-1.1,1.94c-0.74,0.46-1.91,0.68-3.52,0.68H1232.41z"/>
				<path class="st1" d="M1300.83,348.22c-1.68,0-2.91-0.23-3.68-0.68c-0.77-0.45-1.16-1.1-1.16-1.94v-68.74
					c0-0.84,0.38-1.49,1.16-1.94c0.77-0.45,2-0.68,3.68-0.68h1.68c1.82,0,3.1,0.23,3.84,0.68c0.74,0.45,1.1,1.1,1.1,1.94v68.74
					c0,0.84-0.37,1.49-1.1,1.94c-0.74,0.46-2.01,0.68-3.84,0.68H1300.83z"/>
				<path class="st1" d="M1349.91,348.01c-2.31,0-3.47-1.16-3.47-3.47v-66.63c0-2.31,1.16-3.47,3.47-3.47h48.66
					c1.61,0,2.42,1.26,2.42,3.78v2.1c0,2.52-0.81,3.78-2.42,3.78h-40.67v21.44h37.73c1.54,0,2.31,1.26,2.31,3.78v2.1
					c0,2.52-0.77,3.79-2.31,3.79h-37.73v23.12h40.78c1.61,0,2.42,1.26,2.42,3.78v2.1c0,2.52-0.81,3.78-2.42,3.78H1349.91z"/>
				<path class="st1" d="M1454.7,348.74c-3.99,0-7.67-0.31-11.04-0.95s-6.29-1.37-8.78-2.21c-2.49-0.84-4.36-1.61-5.62-2.31
					c-0.7-0.42-1.31-0.86-1.84-1.31c-0.52-0.45-0.79-0.96-0.79-1.52c0-0.49,0.11-1.12,0.32-1.89c0.21-0.77,0.45-1.52,0.74-2.26
					c0.28-0.74,0.61-1.37,1-1.89c0.38-0.52,0.82-0.79,1.31-0.79c0.63,0,2.08,0.45,4.36,1.37c2.28,0.91,5.15,1.82,8.62,2.73
					c3.47,0.91,7.3,1.37,11.51,1.37c3.92,0,7.16-0.4,9.72-1.21c2.56-0.81,4.48-2.01,5.78-3.63c1.3-1.61,1.94-3.61,1.94-5.99
					c0-2.1-0.51-3.85-1.52-5.25c-1.02-1.4-2.42-2.52-4.2-3.36c-1.79-0.84-3.84-1.58-6.15-2.21c-2.31-0.63-4.77-1.22-7.36-1.78
					c-2.8-0.63-5.64-1.37-8.51-2.21c-2.87-0.84-5.52-1.98-7.93-3.42c-2.42-1.44-4.38-3.4-5.89-5.89c-1.51-2.49-2.26-5.66-2.26-9.51
					c0-3.22,0.72-6.13,2.16-8.72c1.44-2.59,3.43-4.78,5.99-6.57c2.56-1.79,5.52-3.17,8.88-4.15c3.36-0.98,6.97-1.47,10.82-1.47
					c3.15,0,6.16,0.21,9.04,0.63c2.87,0.42,5.41,0.95,7.62,1.57c2.21,0.63,3.9,1.26,5.1,1.89c0.63,0.35,1.16,0.68,1.58,1
					c0.42,0.32,0.63,0.75,0.63,1.32c0,0.49-0.07,1.12-0.21,1.89c-0.14,0.77-0.35,1.54-0.63,2.31c-0.28,0.77-0.6,1.44-0.95,2
					c-0.35,0.56-0.77,0.84-1.26,0.84c-0.7,0-1.96-0.31-3.78-0.95c-1.82-0.63-4.15-1.26-6.99-1.89c-2.84-0.63-6.22-0.95-10.14-0.95
					c-3.78,0-6.88,0.42-9.3,1.26c-2.42,0.84-4.24,2.05-5.47,3.63c-1.23,1.58-1.84,3.49-1.84,5.73c0,2.45,0.79,4.34,2.36,5.67
					c1.58,1.33,3.69,2.4,6.36,3.21c2.66,0.81,5.68,1.63,9.04,2.47c3.01,0.7,6.06,1.51,9.14,2.42c3.08,0.91,5.9,2.12,8.46,3.63
					c2.56,1.51,4.62,3.56,6.2,6.15c1.58,2.59,2.36,5.92,2.36,9.98c0,3.5-0.7,6.57-2.1,9.2c-1.4,2.63-3.4,4.83-5.99,6.62
					c-2.59,1.79-5.62,3.14-9.09,4.05C1462.63,348.29,1458.83,348.74,1454.7,348.74z"/>
			</g>
		</g>
		<g>
			<g>
				<path class="st1" d="M696.97,219.29c-7.04,0-13.31-0.44-18.81-1.32c-5.5-0.88-10.23-2.01-14.19-3.38
					c-3.96-1.38-7.15-2.67-9.57-3.88c-1.54-0.88-2.8-1.71-3.79-2.48c-0.99-0.77-1.48-1.81-1.48-3.13c0-1.32,0.22-2.86,0.66-4.62
					c0.44-1.76,1.02-3.49,1.73-5.2c0.71-1.7,1.48-3.11,2.31-4.21c0.82-1.1,1.67-1.65,2.56-1.65c0.99,0,3.41,0.69,7.26,2.06
					c3.85,1.38,8.61,2.75,14.27,4.12c5.66,1.38,11.63,2.06,17.9,2.06c4.95,0,8.91-0.38,11.88-1.16c2.97-0.77,5.12-1.98,6.43-3.63
					s1.98-3.85,1.98-6.6c0-2.42-0.69-4.46-2.06-6.1c-1.38-1.65-3.33-3.08-5.86-4.29c-2.53-1.21-5.53-2.31-8.99-3.3
					c-3.46-0.99-7.34-2.03-11.63-3.13c-3.63-0.99-7.54-2.17-11.71-3.55c-4.18-1.37-8.11-3.24-11.8-5.61
					c-3.69-2.37-6.71-5.55-9.07-9.57c-2.37-4.01-3.55-9.16-3.55-15.43c0-6.16,1.32-11.41,3.96-15.75
					c2.64-4.34,6.19-7.86,10.64-10.56c4.45-2.69,9.46-4.67,15.01-5.94c5.55-1.26,11.19-1.9,16.91-1.9c4.73,0,9.49,0.36,14.27,1.07
					c4.79,0.72,9.05,1.57,12.79,2.56c3.74,0.99,6.43,1.98,8.08,2.97c1.21,0.77,2.2,1.49,2.97,2.15c0.77,0.66,1.15,1.43,1.15,2.31
					c0,1.1-0.16,2.5-0.49,4.21c-0.33,1.71-0.8,3.41-1.4,5.11c-0.61,1.71-1.32,3.13-2.14,4.29c-0.83,1.15-1.73,1.73-2.72,1.73
					c-1.32,0-3.55-0.41-6.68-1.24c-3.13-0.82-6.85-1.62-11.14-2.39c-4.29-0.77-9.02-1.15-14.19-1.15c-4.84,0-8.85,0.39-12.04,1.15
					c-3.19,0.77-5.58,1.9-7.18,3.38c-1.6,1.49-2.39,3.44-2.39,5.86c0,2.64,1.04,4.68,3.13,6.1c2.09,1.43,4.87,2.64,8.33,3.63
					c3.46,0.99,7.28,2.09,11.47,3.3c4.62,1.32,9.38,2.75,14.27,4.29c4.89,1.54,9.43,3.55,13.61,6.02
					c4.18,2.47,7.56,5.83,10.15,10.06c2.58,4.23,3.88,9.76,3.88,16.58c0,6.71-1.29,12.37-3.88,16.99
					c-2.59,4.62-6.05,8.33-10.39,11.14c-4.35,2.81-9.16,4.84-14.44,6.1C707.69,218.66,702.36,219.29,696.97,219.29z"/>
				<path class="st1" d="M822.68,218.3c-3.41,0-5.91-0.44-7.51-1.32c-1.6-0.88-2.39-2.2-2.39-3.96v-88.93H778.3
					c-3.3,0-4.95-2.75-4.95-8.25v-5.12c0-5.5,1.65-8.25,4.95-8.25h94.54c3.3,0,4.95,2.75,4.95,8.25v5.12c0,5.5-1.65,8.25-4.95,8.25
					h-34.48v88.93c0,1.76-0.77,3.08-2.31,3.96c-1.54,0.88-4.07,1.32-7.59,1.32H822.68z"/>
				<path class="st1" d="M929.92,218.3c-3.41,0-5.91-0.46-7.51-1.4c-1.6-0.93-2.39-2.28-2.39-4.04V109.08c0-4.4,2.03-6.6,6.1-6.6
					h46.53c14.52,0,25.43,3.03,32.75,9.07c7.31,6.05,10.97,14.63,10.97,25.74c0,4.07-0.74,7.95-2.23,11.63
					c-1.49,3.69-3.69,6.9-6.6,9.65c-2.92,2.75-6.63,4.9-11.14,6.43v0.66c2.2,0.66,4.37,2.06,6.52,4.21c2.14,2.15,3.88,4.76,5.2,7.84
					l13.53,31.34c0.55,1.1,0.96,2.15,1.24,3.13c0.27,0.99,0.41,1.82,0.41,2.48c0,1.43-0.72,2.39-2.15,2.89
					c-1.43,0.5-3.9,0.74-7.42,0.74h-6.76c-2.42,0-4.48-0.3-6.19-0.91c-1.71-0.6-3-1.95-3.88-4.04l-11.71-26.56
					c-1.21-2.75-2.37-4.95-3.46-6.6c-1.1-1.65-2.56-2.86-4.37-3.63c-1.82-0.77-4.43-1.15-7.84-1.15H945.6v37.45
					c0,1.76-0.77,3.11-2.31,4.04c-1.54,0.94-4.07,1.4-7.59,1.4H929.92z M945.6,155.44h27.06c6.27,0,10.78-1.24,13.53-3.71
					c2.75-2.48,4.12-6.46,4.12-11.96c0-5.5-1.38-9.49-4.12-11.96c-2.75-2.48-7.26-3.71-13.53-3.71H945.6V155.44z"/>
				<path class="st1" d="M1064.71,218.3c-2.97,0-5.03-0.28-6.19-0.82c-1.15-0.55-1.73-1.26-1.73-2.14c0-0.44,0.03-0.85,0.08-1.24
					c0.05-0.38,0.19-0.85,0.41-1.4l43.89-106.42c0.66-1.54,1.76-2.61,3.3-3.22c1.54-0.6,3.63-0.91,6.27-0.91h6.76
					c2.64,0,4.76,0.3,6.35,0.91c1.59,0.61,2.67,1.68,3.22,3.22l43.89,106.58c0.22,0.44,0.36,0.85,0.41,1.24
					c0.05,0.39,0.08,0.8,0.08,1.24c0,0.77-0.58,1.46-1.73,2.06c-1.15,0.6-3.05,0.91-5.69,0.91h-3.63c-1.87,0-3.46-0.19-4.79-0.58
					c-1.32-0.38-2.26-1.35-2.8-2.89l-33.82-84.97c-0.77-2.09-1.62-4.43-2.56-7.01c-0.94-2.58-1.62-4.87-2.06-6.85h-0.5
					c-0.33,1.76-0.99,3.94-1.98,6.52c-0.99,2.59-1.93,5.03-2.8,7.34l-34.15,84.97c-0.55,1.54-1.43,2.5-2.64,2.89
					c-1.21,0.38-2.7,0.58-4.45,0.58H1064.71z M1079.23,189.92V175.4h68.8v14.52H1079.23z"/>
				<path class="st1" d="M1221.94,217.97c-3.63,0-5.44-1.81-5.44-5.44v-104.6c0-3.63,1.82-5.44,5.44-5.44h44.38
					c21.12,0,37.12,4.84,48.01,14.52c10.89,9.68,16.33,24.03,16.33,43.06c0,18.92-5.44,33.3-16.33,43.14
					c-10.89,9.84-26.89,14.77-48.01,14.77H1221.94z M1234.48,202.79h31.84c15.18,0,26.64-3.6,34.4-10.81
					c7.76-7.2,11.63-17.84,11.63-31.92c0-13.97-3.88-24.53-11.63-31.68c-7.75-7.15-19.22-10.72-34.4-10.72h-31.84V202.79z"/>
				<path class="st1" d="M1376.36,218.3c-2.97,0-5.03-0.28-6.19-0.82c-1.15-0.55-1.73-1.26-1.73-2.14c0-0.44,0.03-0.85,0.08-1.24
					c0.05-0.38,0.19-0.85,0.41-1.4l43.89-106.42c0.66-1.54,1.76-2.61,3.3-3.22c1.54-0.6,3.63-0.91,6.27-0.91h6.76
					c2.64,0,4.76,0.3,6.35,0.91c1.59,0.61,2.67,1.68,3.22,3.22l43.89,106.58c0.22,0.44,0.36,0.85,0.41,1.24
					c0.05,0.39,0.08,0.8,0.08,1.24c0,0.77-0.58,1.46-1.73,2.06c-1.15,0.6-3.05,0.91-5.69,0.91h-3.63c-1.87,0-3.46-0.19-4.79-0.58
					c-1.32-0.38-2.26-1.35-2.8-2.89l-33.82-84.97c-0.77-2.09-1.62-4.43-2.56-7.01c-0.94-2.58-1.62-4.87-2.06-6.85h-0.5
					c-0.33,1.76-0.99,3.94-1.98,6.52c-0.99,2.59-1.93,5.03-2.8,7.34l-34.15,84.97c-0.55,1.54-1.43,2.5-2.64,2.89
					c-1.21,0.38-2.7,0.58-4.46,0.58H1376.36z M1390.88,189.92V175.4h68.8v14.52H1390.88z"/>
			</g>
		</g>
	</g>
</g>
</svg>
