<?xml version="1.0" encoding="UTF-8"?>
<svg version="1.1" xmlns="http://www.w3.org/2000/svg" width="1042" height="1042">
<path d="M0 0 C30.110027 -0.59312915 59.46796914 6.59185861 85.80859375 21.12109375 C86.43040527 21.45834473 87.0522168 21.7955957 87.69287109 22.14306641 C125.09551268 42.63913034 152.94781965 78.68554189 165.80859375 119.12109375 C178.45425336 163.53631475 174.17925237 210.82519391 152.08837891 251.59936523 C145.3682003 263.44911902 137.15093375 274.23559445 127.80859375 284.12109375 C126.61593853 285.51252484 125.42819062 286.90818169 124.24609375 288.30859375 C120.72202377 292.31901728 116.96558984 295.77365177 112.80859375 299.12109375 C112.00252686 299.77102295 112.00252686 299.77102295 111.18017578 300.43408203 C95.40956734 313.0224146 78.51385399 321.71382988 59.80859375 329.12109375 C58.80441406 329.52328125 57.80023438 329.92546875 56.765625 330.33984375 C55.79689453 330.7265625 55.79689453 330.7265625 54.80859375 331.12109375 C55.25589844 331.69214844 55.70320313 332.26320313 56.1640625 332.8515625 C66.2496888 346.37791419 69.09163016 360.58139254 67.80859375 377.12109375 C65.18478877 392.02620275 56.59026507 401.7614111 46.0859375 411.91796875 C43.71954373 414.20713293 41.48620408 416.53144894 39.37109375 419.05859375 C35.3078491 423.87005737 30.75033372 428.2028603 26.27978516 432.63037109 C22.59882685 436.28940262 19.08700712 439.99840567 15.7421875 443.96875 C12.29902288 447.80144436 8.58044408 451.36756185 4.91943359 454.99072266 C1.95965643 457.93158247 -0.93851988 460.86507019 -3.62890625 464.05859375 C-7.0817924 468.14730548 -10.89218043 471.85843851 -14.69140625 475.62109375 C-20.36640658 481.20653982 -20.36640658 481.20653982 -25.69140625 487.12109375 C-29.72411482 491.90993518 -34.26073774 496.21400107 -38.70507812 500.61523438 C-43.07456144 504.95852698 -47.18594731 509.44091847 -51.19140625 514.12109375 C-52.29509721 515.41047679 -53.42059256 516.68149417 -54.56640625 517.93359375 C-55.28957031 518.74763672 -55.28957031 518.74763672 -56.02734375 519.578125 C-64.77179859 525.81288973 -75.80949967 524.50627557 -86.0078125 524.4140625 C-87.83340606 524.40845952 -89.65900417 524.40419274 -91.48460388 524.40119934 C-96.26368914 524.38980581 -101.04249604 524.36038654 -105.82147217 524.3270874 C-110.70841712 524.29626746 -115.59540752 524.28266863 -120.48242188 524.26757812 C-130.05220488 524.23551106 -139.62178232 524.18438194 -149.19140625 524.12109375 C-149.18771908 525.10323601 -149.18403191 526.08537827 -149.180233 527.09728241 C-149.09141423 551.00070888 -149.02569346 574.90411393 -148.98415756 598.80767059 C-148.96353695 610.36728278 -148.93542578 621.92678593 -148.88964844 633.48632812 C-148.84976552 643.56223896 -148.8239698 653.63807082 -148.81505227 663.7140584 C-148.80984003 669.04868376 -148.79759952 674.38308319 -148.76848602 679.71763611 C-148.74129408 684.74089311 -148.73296896 689.76383154 -148.73897552 694.78715515 C-148.73787699 696.62857801 -148.72994569 698.47001174 -148.71458435 700.31137085 C-148.69459698 702.83130015 -148.69949843 705.35003653 -148.71038818 707.86999512 C-148.69873682 708.59375446 -148.68708545 709.3175138 -148.67508101 710.06320524 C-148.73779267 715.45498769 -150.2407891 719.60076762 -153.19140625 724.12109375 C-157.14252356 727.87947363 -160.21106506 729.24211447 -165.61433697 729.25810814 C-166.52454277 729.26318268 -167.43474857 729.26825722 -168.37253636 729.27348554 C-169.37387838 729.2739833 -170.37522041 729.27448106 -171.40690613 729.2749939 C-172.46963204 729.27937615 -173.53235796 729.2837584 -174.62728769 729.28827345 C-178.2061981 729.30168155 -181.78508389 729.30784484 -185.36401367 729.31396484 C-187.92287305 729.32186419 -190.4817313 729.33013304 -193.04058838 729.33874512 C-200.7324294 729.36271799 -208.42426922 729.3778955 -216.11613581 729.39080518 C-218.28880756 729.39451747 -220.46147867 729.39849067 -222.63414979 729.40255785 C-236.12736865 729.42779462 -249.62058854 729.4498468 -263.1138258 729.462286 C-266.23905122 729.46521567 -269.36427661 729.46817734 -272.48950195 729.47119141 C-273.26625742 729.47193746 -274.04301289 729.47268351 -274.8433064 729.47345217 C-287.42487405 729.48610445 -300.00630033 729.51932608 -312.5878019 729.56099324 C-325.50623821 729.60342539 -338.42460218 729.62698249 -351.343108 729.63220656 C-358.59587709 729.63561923 -365.84842525 729.64735714 -373.10112572 729.6803093 C-379.92441066 729.71125971 -386.7473047 729.71671946 -393.57064819 729.70492554 C-396.07483161 729.70470439 -398.57903265 729.71304362 -401.08315468 729.73057938 C-404.50289777 729.7532232 -407.92123822 729.74499648 -411.34098816 729.72909546 C-412.33117657 729.74297755 -413.32136499 729.75685963 -414.34155911 729.77116239 C-420.84180039 729.69672906 -425.22685435 728.42276874 -430.19140625 724.12109375 C-434.19074771 719.71523251 -433.61417227 714.59026664 -433.5790863 708.94670105 C-433.58447184 707.91241213 -433.58985738 706.8781232 -433.59540612 705.81249219 C-433.60973104 702.34126428 -433.6025704 698.87041528 -433.59545898 695.39916992 C-433.60116051 692.91210625 -433.60812391 690.42504519 -433.61625671 687.93798828 C-433.63236744 681.87795269 -433.63428128 675.81806628 -433.62904381 669.75802388 C-433.62499951 664.82644262 -433.62644879 659.89489195 -433.63179207 654.96331215 C-433.63254049 654.26089205 -433.63328891 653.55847195 -433.63406001 652.83476639 C-433.63559156 651.40759075 -433.63712991 649.98041512 -433.63867498 648.5532395 C-433.65240724 635.1639416 -433.64695959 621.77470209 -433.63548977 608.38540552 C-433.62557957 596.1650392 -433.6384583 583.94482478 -433.66242396 571.7244819 C-433.6868802 559.15849271 -433.69640545 546.59257405 -433.68977123 534.02656156 C-433.68629049 526.97929908 -433.68843364 519.93215305 -433.70602226 512.88490868 C-433.72238367 506.24710121 -433.71746128 499.60953413 -433.69871712 492.97171783 C-433.69504846 490.54508581 -433.69808894 488.11843217 -433.70860291 485.69182014 C-433.77276464 469.64854212 -433.29669023 454.35199899 -425.50390625 439.87109375 C-425.16431885 439.21761963 -424.82473145 438.56414551 -424.47485352 437.89086914 C-421.02712602 431.4608142 -416.89133624 425.70764057 -412.19140625 420.12109375 C-411.65257812 419.48042969 -411.11375 418.83976562 -410.55859375 418.1796875 C-397.97357447 404.55118672 -379.45493103 395.51155465 -361.19140625 393.12109375 C-357.83924455 393.0146248 -354.49335218 393.06940407 -351.14041138 393.12437439 C-350.13133032 393.13636999 -349.12224926 393.14836559 -348.08258998 393.1607247 C-345.87347119 393.18740613 -343.66437983 393.21643729 -341.45531845 393.24751091 C-335.30727457 393.33346456 -329.15901537 393.40093359 -323.01077271 393.47093201 C-321.69944311 393.48630158 -320.38811352 393.50167116 -319.03704667 393.51750648 C-309.40641376 393.62864071 -299.77585753 393.70374109 -290.14474487 393.75794983 C-289.44653768 393.76190926 -288.74833048 393.7658687 -288.02896549 393.76994812 C-281.545065 393.80632614 -275.06115224 393.83995016 -268.57722116 393.87039173 C-264.13334246 393.89126204 -259.68947149 393.91335135 -255.24560547 393.93676758 C-254.50764024 393.94063792 -253.769675 393.94450825 -253.00934719 393.94849587 C-241.0940261 394.01343423 -229.18103602 394.1602029 -217.2669083 394.33681994 C-204.99904452 394.51671757 -192.73293725 394.6035898 -180.46374691 394.60758024 C-173.58821546 394.61247545 -166.71845918 394.65909721 -159.84451675 394.81324577 C-127.27080457 397.02206656 -127.27080457 397.02206656 -99.15514946 383.69990635 C-95.38784075 379.73478953 -92.21474027 375.44740637 -89.17613602 370.89852333 C-86.35874091 366.95586241 -82.95793626 364.1142038 -79.19140625 361.12109375 C-77.61961353 359.61008188 -76.06419301 358.08160751 -74.53515625 356.52734375 C-73.34212891 355.32271484 -73.34212891 355.32271484 -72.125 354.09375 C-71.32191406 353.27777344 -70.51882813 352.46179688 -69.69140625 351.62109375 C-64.57672199 346.42431183 -59.44169075 341.35846077 -53.90429688 336.61132812 C-51.90406003 334.87109926 -50.02722704 333.03340708 -48.19140625 331.12109375 C-48.83722656 330.86457031 -49.48304688 330.60804688 -50.1484375 330.34375 C-53.51382497 328.97641747 -56.85740503 327.56286804 -60.19140625 326.12109375 C-60.89861816 325.81526367 -61.60583008 325.50943359 -62.33447266 325.19433594 C-79.21576184 317.79161056 -94.29371338 308.24461307 -108.19140625 296.12109375 C-108.98933594 295.44433594 -109.78726562 294.76757812 -110.609375 294.0703125 C-115.60701038 289.7591195 -120.02081819 285.23153264 -124.19140625 280.12109375 C-124.80653076 279.37448486 -124.80653076 279.37448486 -125.43408203 278.61279297 C-135.94603855 265.79767625 -144.1971845 252.12952792 -151.19140625 237.12109375 C-151.72765625 235.97511719 -152.26390625 234.82914063 -152.81640625 233.6484375 C-170.25696582 193.36256162 -168.99500363 146.06394424 -153.0703125 105.62109375 C-144.59330359 84.93204635 -132.41977279 67.45185046 -117.19140625 51.12109375 C-116.46695312 50.33089844 -115.7425 49.54070312 -114.99609375 48.7265625 C-103.25115459 36.40432972 -89.31286675 26.81170831 -74.19140625 19.12109375 C-73.5164209 18.77208008 -72.84143555 18.42306641 -72.14599609 18.06347656 C-49.57692436 6.49915882 -25.29217913 0.95967877 0 0 Z M-97.70947266 79.44824219 C-123.21793044 108.24296257 -132.8503384 144.28673785 -131.19140625 182.12109375 C-128.21531271 218.36019244 -108.94350434 250.33663229 -82.19140625 274.12109375 C-52.41694011 298.41838592 -14.99464491 307.51574761 22.90625 303.6953125 C45.88375451 300.6771985 68.87472255 290.7416691 86.80859375 276.12109375 C87.34258789 275.69634766 87.87658203 275.27160156 88.42675781 274.83398438 C116.10298866 252.72418418 133.37121676 221.56862701 138.43359375 186.51269531 C139.06560487 180.79661559 139.14863659 175.117568 139.12109375 169.37109375 C139.1161792 168.14680664 139.11126465 166.92251953 139.10620117 165.66113281 C138.68889024 133.26068391 125.80475053 101.84866333 103.80859375 78.12109375 C103.30312012 77.57179199 102.79764648 77.02249023 102.27685547 76.45654297 C79.49224296 51.96681447 46.91445402 35.61783766 13.22094727 33.99658203 C-29.77654738 32.79401161 -68.18924262 47.60987092 -97.70947266 79.44824219 Z M-22.81640625 353.49609375 C-24.59788557 355.33953757 -26.38170138 357.1807266 -28.16796875 359.01953125 C-29.02358398 359.90157227 -29.87919922 360.78361328 -30.76074219 361.69238281 C-33.45882519 364.38829781 -36.28148511 366.86845853 -39.18115234 369.34228516 C-43.20661936 372.90429058 -46.92259425 376.79178718 -50.69140625 380.62109375 C-59.64490029 389.71830359 -59.64490029 389.71830359 -64.19921875 393.625 C-69.77827634 398.41320464 -74.82412339 403.74213438 -79.94921875 409.00585938 C-95.60298506 424.87703911 -95.60298506 424.87703911 -101.06106269 425.24825227 C-102.21211044 425.24980001 -102.21211044 425.24980001 -103.38641167 425.25137901 C-104.27125925 425.25500336 -105.15610683 425.25862771 -106.06776798 425.26236188 C-107.53503902 425.26075951 -107.53503902 425.26075951 -109.0319519 425.25912476 C-110.58377377 425.26335668 -110.58377377 425.26335668 -112.16694558 425.26767409 C-115.65671466 425.27605123 -119.14645214 425.27736102 -122.63623047 425.27880859 C-125.1293395 425.2834747 -127.62244767 425.28861792 -130.11555481 425.29420471 C-135.49738404 425.3055048 -140.87920702 425.31398085 -146.26104355 425.32032394 C-154.77497167 425.33064795 -163.28886072 425.35121315 -171.80276489 425.3734436 C-174.71600901 425.38092402 -177.62925329 425.38833773 -180.54249763 425.39573097 C-181.63473518 425.39850682 -181.63473518 425.39850682 -182.74903812 425.40133875 C-191.04297472 425.42227711 -199.33691567 425.44109752 -207.63085938 425.45898438 C-208.38918741 425.46062256 -209.14751545 425.46226074 -209.92882313 425.46394856 C-222.19728329 425.49019126 -234.46574646 425.50885676 -246.73422275 425.52557628 C-259.33627752 425.54302726 -271.93827358 425.57190826 -284.54028141 425.61046565 C-292.30835877 425.63380941 -300.07634035 425.64785515 -307.84445305 425.64979328 C-313.80914318 425.65216175 -319.77368452 425.67009063 -325.73833275 425.69366264 C-328.17792107 425.70083973 -330.6175305 425.70296436 -333.057127 425.69956017 C-336.39862992 425.69564364 -339.73958321 425.7101911 -343.08102417 425.72909546 C-344.03689765 425.72356576 -344.99277113 425.71803607 -345.97761047 425.71233881 C-361.13172106 425.85939804 -374.95905542 431.12034985 -385.9375 441.640625 C-395.96446503 452.67549986 -400.36130386 465.59206911 -400.31166077 480.26423645 C-400.31251519 481.18730786 -400.31336962 482.11037926 -400.31424993 483.06142253 C-400.31589741 486.15530727 -400.31039531 489.24913783 -400.30493164 492.34301758 C-400.30464959 494.56047565 -400.30480786 496.77793382 -400.30537415 498.99539185 C-400.3056614 505.01763914 -400.29977619 511.03986656 -400.29280019 517.06210923 C-400.28655477 523.35485627 -400.28596191 529.64760374 -400.28477478 535.94035339 C-400.28201844 546.5031264 -400.2757695 557.06589289 -400.2668457 567.62866211 C-400.25766439 578.50756799 -400.25059854 589.38647189 -400.24633789 600.26538086 C-400.24606989 600.94297905 -400.2458019 601.62057725 -400.24552578 602.31870872 C-400.24321288 608.21298965 -400.2410601 614.10727063 -400.23892307 620.00155163 C-400.22951619 645.3747392 -400.20959491 670.74790744 -400.19140625 696.12109375 C-328.58140625 696.12109375 -256.97140625 696.12109375 -183.19140625 696.12109375 C-183.02089041 632.9648889 -183.02089041 632.9648889 -182.89355469 569.80859375 C-182.84814453 557.59375 -182.84814453 557.59375 -182.82183838 551.87548828 C-182.80483287 547.88163479 -182.7989747 543.88793183 -182.79986572 539.89404297 C-182.80063735 534.79708298 -182.78233714 529.70052405 -182.7503171 524.60366821 C-182.74180641 522.73468871 -182.73995531 520.86566399 -182.7455821 518.99667358 C-182.75223177 516.46735962 -182.73429946 513.93933992 -182.71038818 511.41015625 C-182.71814899 510.68271713 -182.72590981 509.95527802 -182.73390579 509.20579529 C-182.64554658 503.89223351 -181.30612778 499.48379481 -178.19140625 495.12109375 C-172.77595112 490.95883085 -167.33564135 490.56767585 -160.70532227 490.71801758 C-159.79202148 490.72213654 -158.8787207 490.72625549 -157.93774414 490.73049927 C-155.96744524 490.74120657 -153.99717808 490.76067412 -152.02704048 490.78806496 C-148.90257065 490.82868061 -145.77924552 490.83989105 -142.65452576 490.84269714 C-133.77567106 490.85442633 -124.89758484 490.90699729 -116.01928711 491.00756836 C-110.57621717 491.06716327 -105.13444615 491.08279427 -99.69108391 491.07141685 C-97.62463907 491.07585871 -95.55815685 491.09702303 -93.49206734 491.13559914 C-82.29288672 491.68467781 -82.29288672 491.68467781 -71.98214722 488.18270874 C-69.70833039 485.94330601 -67.95565099 483.77042865 -66.19140625 481.12109375 C-65.14347794 479.8794806 -64.08336469 478.64789454 -63.00390625 477.43359375 C-62.17826172 476.46873047 -62.17826172 476.46873047 -61.3359375 475.484375 C-58.39975153 472.24868736 -55.29651389 469.19387336 -52.19140625 466.12109375 C-46.80601685 460.80908352 -46.80601685 460.80908352 -41.75390625 455.18359375 C-38.3010201 451.09488202 -34.49063207 447.38374899 -30.69140625 443.62109375 C-25.01640592 438.03564768 -25.01640592 438.03564768 -19.69140625 432.12109375 C-15.65339065 427.32595023 -11.11015566 423.01658595 -6.66015625 418.609375 C-3.56135177 415.52901579 -0.50810853 412.46592771 2.30859375 409.12109375 C5.73675728 405.05014956 9.53064139 401.36313056 13.30859375 397.62109375 C18.35487492 392.61834672 23.27130048 387.59713735 27.80859375 382.12109375 C28.2984375 381.5590625 28.78828125 380.99703125 29.29296875 380.41796875 C33.6346549 375.39332073 34.22548964 371.58250348 34.1484375 365.1015625 C33.31383096 357.78196722 29.23079969 351.66102981 23.90625 346.72265625 C5.62362188 332.76385266 -7.91202429 337.80727063 -22.81640625 353.49609375 Z " fill="#000000" transform="translate(433.19140625,312.87890625)"/>
<path d="M0 0 C1.28097565 -0.0071553 2.56195129 -0.01431061 3.88174438 -0.02168274 C5.2943418 -0.02452274 6.70693947 -0.0272345 8.11953735 -0.02983093 C9.61316077 -0.03610045 11.10678264 -0.04274768 12.60040283 -0.04974365 C17.50081303 -0.07074025 22.40122335 -0.08114655 27.30166626 -0.09111023 C28.99429973 -0.09516037 30.68693304 -0.09927737 32.37956619 -0.10346031 C40.33896056 -0.12250764 48.29834573 -0.13673584 56.2577585 -0.14507228 C65.41418991 -0.15482296 74.57037818 -0.18108743 83.72672403 -0.22157317 C90.82254394 -0.25185933 97.91829469 -0.2665532 105.01417792 -0.26985329 C109.24287257 -0.27219086 113.47130739 -0.28098 117.6999321 -0.30631447 C121.68749915 -0.32981813 125.67463944 -0.33374036 129.66225815 -0.32355309 C131.11372814 -0.32306287 132.56522075 -0.32922868 134.01662445 -0.34310913 C147.06171834 -0.46072903 159.33367212 1.73091171 170.96572876 7.89717102 C171.62887085 8.23933655 172.29201294 8.58150208 172.97525024 8.93403625 C178.76851021 12.01996772 183.80177065 15.72112062 188.65322876 20.14717102 C189.26166626 20.66408508 189.87010376 21.18099915 190.49697876 21.71357727 C203.06554752 33.11098394 211.68628185 51.89627747 212.82515979 68.68109584 C213.11959476 76.21884666 213.07257876 83.76104365 213.05728149 91.30317688 C213.06299032 93.84705403 213.06995656 96.39092861 213.07807922 98.93479919 C213.09410872 105.09999873 213.09612513 111.26506014 213.09086632 117.43027412 C213.08681133 122.44088784 213.08828384 127.45147152 213.09361458 132.46208382 C213.094363 133.17740867 213.09511142 133.89273353 213.09588252 134.62973489 C213.09741409 136.08318357 213.09895244 137.53663224 213.10049749 138.9900809 C213.11419054 152.5851287 213.10880531 166.18011876 213.09731228 179.77516521 C213.08736287 192.20870609 213.10035563 204.64209853 213.12424647 217.07561653 C213.14862768 229.86103283 213.15824902 242.64637994 213.15159374 255.43181902 C213.14810196 262.60272171 213.15033195 269.77350999 213.16784477 276.94439507 C213.18408994 283.67915926 213.17940103 290.41359326 213.16053963 297.14836502 C213.1568443 299.6211307 213.15998949 302.09391733 213.17042542 304.56666374 C213.1835706 307.93826751 213.17214459 311.30891863 213.1544342 314.68048096 C213.16884171 316.15259746 213.16884171 316.15259746 213.18354028 317.65445369 C213.12204877 323.33181048 212.49003372 326.66699515 208.65322876 331.14717102 C204.77949083 334.55974968 202.47135958 336.26978449 197.33214188 336.2813921 C196.41921033 336.28584994 195.50627879 336.29030779 194.56568265 336.29490072 C193.5561726 336.29471635 192.54666255 336.29453199 191.50656128 336.29434204 C190.43919511 336.29801873 189.37182893 336.30169542 188.27211833 336.30548352 C184.67161131 336.31655544 181.0711331 336.32037013 177.47061157 336.32417297 C174.89880277 336.33043494 172.32699488 336.3370815 169.75518799 336.34408569 C162.01992747 336.3638601 154.28466562 336.37391772 146.54938614 336.38281348 C142.9080631 336.38719494 139.26674151 336.39256213 135.62541962 336.39780235 C123.52300442 336.4148159 111.42059014 336.42931038 99.31816483 336.43655109 C96.17659758 336.43846104 93.03503035 336.44038136 89.89346313 336.44233704 C88.72220883 336.44306265 88.72220883 336.44306265 87.52729282 336.44380292 C74.87643582 336.45210435 62.22567334 336.47744257 49.57485762 336.50991771 C36.59092094 336.54297664 23.60703231 336.56099881 10.62305331 336.56419533 C3.33124606 336.56636156 -3.96042337 336.5751265 -11.25218964 336.60065651 C-18.11071061 336.62461391 -24.96897958 336.6281965 -31.82753372 336.61789513 C-34.34706318 336.61739809 -36.8666046 336.62376774 -39.38609695 336.63745117 C-42.82175488 336.65506861 -46.25651162 336.64811311 -49.69216919 336.63491821 C-51.19304994 336.65137208 -51.19304994 336.65137208 -52.72425151 336.66815835 C-58.45090521 336.61494003 -61.83106361 336.02714523 -66.34677124 332.14717102 C-71.12262835 326.85500503 -71.49158679 322.81693358 -71.46029663 315.9120636 C-71.46044266 315.07281845 -71.46058868 314.2335733 -71.46073914 313.36889648 C-71.46004212 310.59313885 -71.45225953 307.8174482 -71.44442749 305.04170227 C-71.44256256 303.11784909 -71.44113901 301.19399543 -71.44013977 299.2701416 C-71.43632048 294.2050292 -71.42649518 289.13994544 -71.41543579 284.07484436 C-71.40520905 278.9068999 -71.40063944 273.73895081 -71.39559937 268.57099915 C-71.38487241 258.42970849 -71.36728034 248.28844662 -71.34677124 238.14717102 C-79.92677124 238.14717102 -88.50677124 238.14717102 -97.34677124 238.14717102 C-97.32582397 240.7512384 -97.30487671 243.35530579 -97.28329468 246.0382843 C-97.21697914 254.64761387 -97.17281761 263.25695481 -97.13952255 271.86647224 C-97.11865885 277.08582712 -97.09036317 282.30492003 -97.04501343 287.52412415 C-97.00151265 292.56213324 -96.97762498 297.59989054 -96.96726227 302.63807297 C-96.95987853 304.55900409 -96.94545972 306.47992162 -96.92385101 308.40074539 C-96.89476076 311.09402867 -96.89081758 313.78627513 -96.89266968 316.47969055 C-96.87828857 317.27163315 -96.86390747 318.06357574 -96.84909058 318.8795166 C-96.88782002 324.09362741 -97.9365451 326.99103406 -101.34677124 331.14717102 C-106.12101565 335.353053 -108.49193245 336.27200156 -114.81746864 336.28418541 C-115.49272903 336.28683724 -116.16798942 336.28948906 -116.86371225 336.29222125 C-119.14881998 336.29994097 -121.43387422 336.30047444 -123.71899414 336.30107117 C-125.36493992 336.30508404 -127.0108847 336.30952197 -128.65682828 336.31435072 C-133.19749349 336.32634177 -137.73814805 336.33197053 -142.278826 336.33653188 C-147.16924888 336.34247846 -152.05965897 336.3540907 -156.95007324 336.36482239 C-168.769918 336.3893689 -180.58976699 336.40397726 -192.4096294 336.41688246 C-195.74676879 336.42059288 -199.08390776 336.42456624 -202.42104673 336.42863512 C-223.13306292 336.45387116 -243.84507975 336.47592981 -264.55710793 336.48836327 C-269.35695015 336.49129309 -274.15679235 336.49425473 -278.95663452 336.49726868 C-280.74615915 336.49838775 -280.74615915 336.49838775 -282.5718358 336.49952944 C-301.90126321 336.51218507 -321.23059867 336.54540948 -340.55998309 336.58707051 C-360.39406332 336.6294697 -380.22809645 336.65305602 -400.06222188 336.65828383 C-411.20277471 336.66170034 -422.34318389 336.67348372 -433.48369217 336.70638657 C-442.97107416 336.73436059 -452.45828307 336.74539806 -461.9457031 336.7341911 C-466.78723348 336.72899759 -471.62840124 336.73193618 -476.46987915 336.75665665 C-480.90280213 336.77910225 -485.33510105 336.77844591 -489.76803462 336.75945278 C-491.37107608 336.75664616 -492.97415943 336.76228805 -494.57713337 336.77726571 C-510.33537086 336.91549371 -510.33537086 336.91549371 -516.34677124 331.14717102 C-520.93123104 325.23173902 -520.49914219 318.60162836 -520.50790405 311.45088196 C-520.51286896 310.47949783 -520.51783386 309.50811371 -520.52294922 308.5072937 C-520.53753508 305.29870389 -520.54436709 302.09016352 -520.54989624 298.88154602 C-520.55565086 296.64580789 -520.56140855 294.41006978 -520.56716919 292.17433167 C-520.57766916 287.48705313 -520.58351833 282.79979169 -520.58700562 278.11250305 C-520.59248662 272.11943136 -520.61651068 266.12658727 -520.64497757 260.13358688 C-520.66364256 255.51463673 -520.66881162 250.89574096 -520.67034149 246.27675629 C-520.67336007 244.06805935 -520.68136164 241.85936319 -520.69452667 239.65070343 C-520.71166687 236.55397444 -520.70968729 233.45779597 -520.70321655 230.36103821 C-520.71243134 229.45682632 -520.72164612 228.55261444 -520.73114014 227.6210022 C-520.69062373 221.40092724 -520.21994887 214.3688043 -515.89479446 209.51910019 C-512.16670967 206.34331967 -509.70178336 205.02188962 -504.89960289 205.02412319 C-503.48807963 205.02113662 -503.48807963 205.02113662 -502.04804075 205.01808971 C-500.48678163 205.02245897 -500.48678163 205.02245897 -498.89398193 205.0269165 C-497.7937975 205.02606208 -496.69361306 205.02520765 -495.56008971 205.02432734 C-491.84883062 205.02267143 -488.13761606 205.02819574 -484.42636108 205.03364563 C-481.77585243 205.0339275 -479.12534657 205.03381387 -476.47483826 205.03320312 C-470.75575672 205.032678 -465.03668656 205.03582361 -459.31760788 205.04144096 C-451.04871405 205.04955751 -442.77982573 205.05217134 -434.51092835 205.05342896 C-421.09618015 205.05561923 -407.68143802 205.06227866 -394.26669312 205.07173157 C-381.23316478 205.08090631 -368.19963809 205.08798684 -355.16610718 205.09223938 C-353.96164263 205.09263347 -353.96164263 205.09263347 -352.73284547 205.09303551 C-348.70467158 205.09434052 -344.67649768 205.09560424 -340.64832377 205.09684741 C-307.21446853 205.10721927 -273.78062063 205.12483693 -240.34677124 205.14717102 C-240.55535767 204.40676575 -240.76394409 203.66636047 -240.97885132 202.90351868 C-241.25108521 201.92431458 -241.52331909 200.94511047 -241.80380249 199.93623352 C-242.07426392 198.96895325 -242.34472534 198.00167297 -242.62338257 197.00508118 C-243.62221802 193.05895637 -244.11201604 189.2040344 -244.34677124 185.14717102 C-244.40864624 184.12429993 -244.40864624 184.12429993 -244.47177124 183.08076477 C-244.99755672 165.23692016 -239.22189796 147.18668178 -227.17098999 133.80732727 C-218.87949288 126.26153226 -208.18263553 121.01610218 -196.89248657 121.0269165 C-195.78473373 121.02554184 -194.6769809 121.02416718 -193.53565979 121.02275085 C-191.71981133 121.02814377 -191.71981133 121.02814377 -189.86727905 121.03364563 C-187.94982628 121.03342659 -187.94982628 121.03342659 -185.99363708 121.03320312 C-182.49190544 121.03291627 -178.99020806 121.03879502 -175.48848438 121.04577708 C-171.82762132 121.05202913 -168.16675747 121.05261589 -164.50588989 121.05380249 C-157.57511073 121.05691034 -150.64434734 121.06511638 -143.71357512 121.07515198 C-135.82246177 121.08633006 -127.93134767 121.09182784 -120.04022837 121.09684741 C-103.80906676 121.10729943 -87.57792101 121.12488832 -71.34677124 121.14717102 C-71.35565369 120.5084053 -71.36453613 119.86963959 -71.37368774 119.21151733 C-71.4631591 112.47767722 -71.52291299 105.74400969 -71.5664978 99.00971985 C-71.58643818 96.50672023 -71.6136004 94.00376612 -71.64852905 91.50093079 C-71.88171427 74.34467132 -72.08378796 57.2979706 -63.65927124 41.77217102 C-63.31750854 41.1191803 -62.97574585 40.46618958 -62.62362671 39.79341125 C-52.1583465 20.50590457 -35.12315755 8.51113469 -14.62411499 2.05732727 C-9.63260333 0.67112677 -5.19143109 0.01995891 0 0 Z M-28.52645874 49.60420227 C-37.47285611 62.102281 -38.63586469 74.8310723 -38.62116623 89.82586288 C-38.6201843 92.03817407 -38.6333305 94.25002113 -38.65014648 96.46226501 C-38.69595785 102.74180259 -38.72105148 109.02127996 -38.72763062 115.30097961 C-38.73265265 119.16647568 -38.75691446 123.03146815 -38.79295731 126.89679337 C-38.80271763 128.35991515 -38.80510789 129.82310641 -38.79978561 131.28625107 C-38.79269045 133.3294697 -38.81003645 135.37118439 -38.83261108 137.41426086 C-38.83546112 138.57275543 -38.83831116 139.73125 -38.84124756 140.92485046 C-39.47465573 144.96233524 -40.71169487 147.03540501 -43.34677124 150.14717102 C-47.56489761 152.67008846 -50.67964766 153.52243373 -55.57064819 153.52571106 C-56.79869171 153.53391373 -58.02673523 153.54211639 -59.29199219 153.55056763 C-60.6396801 153.54461011 -61.98736687 153.53839107 -63.33505249 153.53193665 C-64.76461215 153.53604492 -66.19416845 153.54150731 -67.62371826 153.54821777 C-70.69465415 153.55991916 -73.76541042 153.56243564 -76.83636475 153.55786133 C-81.69450007 153.55103944 -86.55239993 153.56694014 -91.41049194 153.58625793 C-102.59918897 153.62729422 -113.78787925 153.63865439 -124.97663879 153.6497879 C-135.23363725 153.66029999 -145.49052228 153.67709777 -155.74745083 153.71788359 C-160.57459942 153.73622246 -165.40147787 153.74013858 -170.22865295 153.7329483 C-173.23358399 153.73142465 -176.23838027 153.74222138 -179.24327469 153.75632668 C-180.63400387 153.76032336 -182.02475878 153.75921446 -183.41547775 153.75255394 C-185.31793889 153.74414402 -187.220457 153.75592373 -189.12289429 153.76863098 C-190.18622482 153.76934349 -191.24955536 153.770056 -192.34510803 153.7707901 C-198.35366728 154.52420809 -202.36100864 157.47740649 -206.02255249 162.08076477 C-211.30880571 170.32981478 -211.69783115 180.84222478 -209.69052124 190.20967102 C-207.74157631 196.39253081 -205.06574006 200.86127227 -199.34677124 204.14717102 C-195.24044892 205.36378498 -191.21758166 205.28293913 -186.9692688 205.26742554 C-186.11647221 205.26827996 -185.26367562 205.26913439 -184.38503671 205.2700147 C-181.52297643 205.27166388 -178.66097457 205.26615728 -175.79891968 205.26069641 C-173.74909466 205.26041439 -171.69926954 205.26057256 -169.64944458 205.26113892 C-164.07960233 205.26142632 -158.50978153 205.2555388 -152.93994427 205.24856496 C-147.12098486 205.24232193 -141.30202498 205.24172687 -135.48306274 205.24053955 C-124.46174218 205.23742904 -113.44043151 205.22921942 -102.4191153 205.21919006 C-89.87270877 205.20802024 -77.32630176 205.20251628 -64.77989149 205.19749463 C-38.96884592 205.18703659 -13.15780913 205.16944255 12.65322876 205.14717102 C13.4508279 203.56772338 14.24659808 201.98735208 15.04161072 200.40660095 C15.70662582 199.08664847 15.70662582 199.08664847 16.38507557 197.74003029 C18.1181445 194.19660678 19.61649977 190.58510085 21.07119751 186.92060852 C21.37021973 186.17772079 21.66924194 185.43483307 21.97732544 184.66943359 C22.61024815 183.09607456 23.2413976 181.52200113 23.87084961 179.94725037 C25.18733463 176.65552002 26.51464632 173.3681926 27.84141541 170.08059692 C28.83032338 167.6299878 29.81801321 165.17889031 30.80557251 162.72773743 C33.29753109 156.54686364 35.80394651 150.37232014 38.34072876 144.20967102 C38.72575562 143.25947083 39.11078247 142.30927063 39.50747681 141.33027649 C44.24867928 129.86470636 44.24867928 129.86470636 49.27822876 126.27217102 C54.4289163 124.55527517 59.53660753 124.06565694 64.74697876 125.87373352 C68.66499098 127.91574836 71.02176177 130.06850354 72.65322876 134.14717102 C74.39337836 140.39123723 73.52739891 144.10547871 71.18838501 150.11592102 C70.92228424 150.80503067 70.65618347 151.49414032 70.38201904 152.20413208 C69.48250498 154.52255807 68.56901659 156.83512787 67.65322876 159.14717102 C67.33004669 159.96817291 67.00686462 160.7891748 66.67388916 161.63505554 C62.18738727 173.02658015 57.60730293 184.3807893 53.02772522 195.73513794 C50.95103184 200.89117774 48.89918086 206.05524746 46.89096069 211.23834229 C45.83722386 213.95157798 44.76650433 216.65788549 43.69186401 219.36289978 C42.98575821 221.15873036 42.30325811 222.96378647 41.62149048 224.76899719 C40.98171265 226.36578308 40.98171265 226.36578308 40.32901001 227.99482727 C39.97749878 228.90240784 39.62598755 229.8099884 39.26382446 230.74507141 C36.92443677 234.23411727 34.60578418 235.93191185 30.65322876 237.14717102 C25.39500219 237.74780983 20.15971322 237.75360118 14.87588501 237.75654602 C13.33887501 237.77154145 11.80188104 237.78827146 10.26490784 237.80665588 C6.23886337 237.85018929 2.21303622 237.87029709 -1.8132019 237.88539124 C-6.65427908 237.90846904 -11.4951183 237.96088244 -16.33600616 238.0083313 C-23.67298969 238.07698533 -31.00929118 238.10856286 -38.34677124 238.14717102 C-38.34677124 259.59717102 -38.34677124 281.04717102 -38.34677124 303.14717102 C33.59322876 303.14717102 105.53322876 303.14717102 179.65322876 303.14717102 C179.71149465 262.69014367 179.71149465 262.69014367 179.75088501 222.23310852 C179.75481214 216.77444955 179.75884143 211.31579069 179.76309204 205.85713196 C179.76361954 205.17301333 179.76414704 204.48889471 179.76469052 203.78404522 C179.77338026 192.75110589 179.789143 181.71818749 179.80753435 170.68526055 C179.82626213 159.35570826 179.83720194 148.02617145 179.84140575 136.6966027 C179.84401135 130.33582691 179.85012862 123.97509851 179.86468887 117.61433792 C179.87828917 111.62426714 179.88244642 105.63426315 179.87944412 99.64417839 C179.87999319 97.44884694 179.88395598 95.25351319 179.89163971 93.05819511 C179.90163921 90.05319611 179.89917938 87.04844696 179.89373779 84.04344177 C179.90247632 82.75059365 179.90247632 82.75059365 179.91139138 81.43162739 C179.84354852 67.502064 175.55839175 55.33638852 165.85635376 45.11592102 C157.22416358 37.40204895 146.37610031 33.04883259 134.82449341 33 C133.6584256 32.9928447 132.49235779 32.98568939 131.29095459 32.97831726 C130.02025116 32.97562836 128.74954773 32.97293945 127.44033813 32.97016907 C126.08139881 32.9638987 124.72246118 32.95725139 123.36352539 32.95025635 C118.90802185 32.92927321 114.45251822 32.918856 109.99697876 32.90888977 C108.45783979 32.90483939 106.91870099 32.90072238 105.37956238 32.89653969 C98.14312175 32.87749678 90.90669124 32.86326661 83.67023039 32.85492772 C75.34463559 32.84517309 67.01930791 32.81889643 58.69380713 32.77842683 C52.24174968 32.74815155 45.78976828 32.7334479 39.33764124 32.73014671 C35.49241413 32.72780827 31.64747264 32.71900748 27.80232239 32.69368553 C24.17753193 32.67020031 20.55321097 32.6662523 16.9283638 32.67644691 C14.98544505 32.67716903 13.04254904 32.65822047 11.09973145 32.63838196 C-4.2878541 32.72827444 -18.52228482 37.51413784 -28.52645874 49.60420227 Z M-486.34677124 238.14717102 C-486.34677124 259.59717102 -486.34677124 281.04717102 -486.34677124 303.14717102 C-368.86677124 303.14717102 -251.38677124 303.14717102 -130.34677124 303.14717102 C-130.34677124 281.69717102 -130.34677124 260.24717102 -130.34677124 238.14717102 C-247.82677124 238.14717102 -365.30677124 238.14717102 -486.34677124 238.14717102 Z " fill="#000000" transform="translate(829.3467712402344,705.8528289794922)"/>
<path d="M0 0 C0.8757518 -0.00979385 1.7515036 -0.01958771 2.65379333 -0.02967834 C61.57502306 -0.55282795 113.54684239 16.33528211 156.50390625 57.80078125 C160.87865548 62.35008406 164.79984537 67.27576282 168.69140625 72.23828125 C169.3258667 73.03419678 169.3258667 73.03419678 169.97314453 73.84619141 C194.2634398 104.51775905 209.66067049 145.58863658 209.89453125 184.91015625 C209.90159088 185.70632858 209.90865051 186.50250092 209.91592407 187.32279968 C210.14236367 220.3638771 210.14236367 220.3638771 206.69140625 236.23828125 C206.50336426 237.15432129 206.31532227 238.07036133 206.12158203 239.01416016 C196.42377747 285.32754184 170.17863581 330.06041386 130.69140625 357.23828125 C127.72304056 358.96924034 124.77023553 360.66561712 121.703125 362.21484375 C116.77828913 367.16836799 118.41380232 379.40240678 118.2265625 386.0859375 C118.14808118 388.57227495 118.06929596 391.05860281 117.99023438 393.54492188 C117.87049315 397.4309796 117.75343857 401.31706846 117.6418457 405.20336914 C117.53195705 408.97700734 117.41124232 412.75017997 117.2890625 416.5234375 C117.2436306 418.2565493 117.2436306 418.2565493 117.19728088 420.02467346 C116.94687678 427.47960351 116.69083311 434.12152761 112.56640625 440.55078125 C108.65851443 444.20381056 105.02931194 446.13744054 99.60644531 446.30126953 C93.35138295 445.77693559 89.31777614 443.6820832 84.19140625 440.17578125 C82.52756448 439.08169549 80.86348947 437.98796439 79.19921875 436.89453125 C78.31524414 436.30542969 77.43126953 435.71632813 76.52050781 435.109375 C71.41239644 431.73100379 66.23226338 428.46485105 61.06640625 425.17578125 C52.99428992 420.01129673 44.9349395 414.82739474 36.90380859 409.59936523 C35.17026422 408.47294323 33.43109325 407.35519297 31.69140625 406.23828125 C30.93931885 405.70307861 30.18723145 405.16787598 29.41235352 404.61645508 C25.98605844 402.88101895 23.65664835 402.94006955 19.828125 403.05078125 C18.46468841 403.07704818 17.10124398 403.10291057 15.73779297 403.12841797 C15.02685486 403.14708923 14.31591675 403.1657605 13.58343506 403.18499756 C-30.94354745 404.26121937 -73.94629742 391.98023644 -109.30859375 364.23828125 C-110.84966797 363.03171875 -110.84966797 363.03171875 -112.421875 361.80078125 C-156.19942231 326.49696947 -183.59849034 275.31322379 -189.91821289 219.51049805 C-190.6510697 212.20511699 -190.65669692 204.88600912 -190.62109375 197.55078125 C-190.61927094 196.76558105 -190.61744812 195.98038086 -190.61557007 195.17138672 C-190.56682542 182.65465045 -189.92898275 170.51448418 -187.30859375 158.23828125 C-187.1369873 157.41553711 -186.96538086 156.59279297 -186.78857422 155.74511719 C-178.75347025 118.30541023 -160.6087629 85.85545431 -134.30859375 58.23828125 C-133.65503906 57.531875 -133.00148438 56.82546875 -132.328125 56.09765625 C-99.55507497 21.71739908 -47.19962362 0.43623108 0 0 Z M-45.30859375 42.23828125 C-46.02354004 42.4688623 -46.73848633 42.69944336 -47.47509766 42.93701172 C-86.97381646 55.95202387 -120.54371843 85.28879109 -139.30859375 122.23828125 C-139.62521973 122.85380859 -139.9418457 123.46933594 -140.26806641 124.10351562 C-160.20923942 163.29859407 -162.31087592 208.88600343 -149.18408203 250.58154297 C-140.62297879 276.56088638 -126.94764001 300.20997162 -107.74365234 319.76806641 C-106.36577001 321.17970427 -105.01805169 322.62059519 -103.671875 324.0625 C-85.63662723 342.96042031 -61.40575155 356.92134787 -36.30859375 364.05078125 C-35.67066895 364.23350586 -35.03274414 364.41623047 -34.37548828 364.60449219 C-32.03144667 365.22233702 -29.68100057 365.73887085 -27.30859375 366.23828125 C-26.06795166 366.50447266 -24.82730957 366.77066406 -23.54907227 367.04492188 C-10.08150171 369.72036248 3.10501447 369.42134616 16.77514648 369.02587891 C19.71728747 368.94707795 22.65872831 368.89973229 25.6015625 368.85546875 C26.92366478 368.80264236 26.92366478 368.80264236 28.2724762 368.74874878 C34.94048661 368.66909004 39.18181169 370.59627156 44.69140625 374.23828125 C45.98947744 375.05095041 47.28763856 375.86347598 48.5859375 376.67578125 C49.89379293 377.52708828 51.19972433 378.3813571 52.50390625 379.23828125 C53.21168213 379.69887939 53.91945801 380.15947754 54.64868164 380.6340332 C58.83061698 383.35720657 62.99988829 386.09943429 67.16796875 388.84375 C68.07699951 389.43994141 68.98603027 390.03613281 69.92260742 390.65039062 C71.70670047 391.82079429 73.48818394 392.99518692 75.2668457 394.17382812 C76.07597412 394.70427734 76.88510254 395.23472656 77.71875 395.78125 C78.79757446 396.49317505 78.79757446 396.49317505 79.89819336 397.21948242 C81.63749396 398.40294224 81.63749396 398.40294224 83.69140625 398.23828125 C84.81766848 388.9104504 85.00719075 379.58703621 85.20898438 370.20117188 C85.80337946 348.94874396 85.80337946 348.94874396 89.75390625 343.27734375 C93.65214091 340.57138831 97.62258946 338.05384604 101.69140625 335.61328125 C110.04010855 330.45916241 117.53746503 324.94354323 124.69140625 318.23828125 C125.23490723 317.73184082 125.7784082 317.22540039 126.33837891 316.70361328 C157.03917027 287.79985462 175.02549605 246.78864033 176.79980469 204.66479492 C177.88593745 156.9328211 162.4121191 114.02435623 129.53515625 79.1171875 C125.26877241 74.7127565 120.57660374 70.93324321 115.69140625 67.23828125 C114.65628906 66.43777344 113.62117188 65.63726562 112.5546875 64.8125 C84.20549438 43.38111264 48.47568232 32.7271591 13.12890625 32.92578125 C12.08517349 32.92901398 12.08517349 32.92901398 11.02035522 32.93231201 C-8.66242055 33.02957476 -26.60147375 36.14484371 -45.30859375 42.23828125 Z " fill="#000000" transform="translate(729.30859375,-0.23828125)"/>
<path d="M0 0 C0.68181335 0.00021149 1.36362671 0.00042297 2.06610107 0.00064087 C18.1383421 0.05030612 32.15339306 2.81923867 46.9375 9.375 C47.91847656 9.80425781 48.89945313 10.23351562 49.91015625 10.67578125 C76.52154559 23.1224785 95.88196019 46.00562322 106.44140625 73.12890625 C116.792962 102.26776319 115.33209407 133.57402806 102.13769531 161.55786133 C89.19224359 187.98243696 66.57755542 208.38688906 38.9375 218.375 C9.7660232 228.03485306 -22.16314008 227.06944768 -49.9453125 213.45214844 C-58.0064782 209.30773114 -65.21719166 204.32645816 -72.0625 198.375 C-73.30966797 197.32699219 -73.30966797 197.32699219 -74.58203125 196.2578125 C-97.63031431 176.36052359 -109.62424988 148.30452019 -112.0625 118.375 C-113.73239144 88.6648482 -103.61497792 59.74207658 -84.0625 37.375 C-62.31449802 13.06066799 -32.48991172 -0.04179151 0 0 Z M-60.34765625 61.8125 C-74.99465746 78.97122204 -79.52700079 100.42846957 -78.0625 122.375 C-75.7085389 141.98705481 -64.21295317 161.85463746 -48.89453125 174.109375 C-35.88419491 183.70264095 -20.37284629 190.65143565 -4.0625 191.375 C-3.33417969 191.4265625 -2.60585937 191.478125 -1.85546875 191.53125 C18.03352577 192.32285177 38.57092418 184.33751342 53.1875 171.0625 C68.98087578 156.13513906 78.74170803 137.46113498 79.40625 115.53125 C79.60840559 95.11353557 73.92619717 75.72491615 59.9375 60.375 C59.22207031 59.56804688 58.50664062 58.76109375 57.76953125 57.9296875 C43.66649297 42.88337912 24.9480013 34.40537177 4.390625 33.16015625 C-21.51148949 32.48842092 -42.95897162 43.26456973 -60.34765625 61.8125 Z " fill="#000000" transform="translate(141.0625,462.625)"/>
<path d="M0 0 C0.65645508 0.19335938 1.31291016 0.38671875 1.98925781 0.5859375 C19.08398949 5.70724408 33.53252394 14.38697222 47 26 C48.11955078 26.96486328 48.11955078 26.96486328 49.26171875 27.94921875 C63.77837103 41.52361368 73.35096678 60.16988927 79 79 C79.3196875 80.051875 79.639375 81.10375 79.96875 82.1875 C87.04923864 110.50945456 81.63832266 141.98473305 67 167 C49.31446482 194.50824008 23.85996966 212.36784854 -7.93139648 219.5625 C-24.25749068 223.01539281 -42.89946686 222.34151931 -59 218 C-60.83304688 217.50693359 -60.83304688 217.50693359 -62.703125 217.00390625 C-91.92051767 208.17145177 -115.8699088 187.68587591 -130.21484375 160.94140625 C-144.30715097 133.4180239 -146.03617004 101.06862519 -136.6796875 71.7734375 C-132.14017787 58.39707909 -125.25949378 46.67585994 -116 36 C-115.33613281 35.19175781 -114.67226563 34.38351562 -113.98828125 33.55078125 C-99.8307809 16.88104424 -80.78741476 6.12294985 -60 0 C-58.89398437 -0.3403125 -57.78796875 -0.680625 -56.6484375 -1.03125 C-39.45491068 -5.37996404 -16.94187242 -5.21288382 0 0 Z M-88.44921875 55.6015625 C-102.23627429 71.84641232 -110.71435062 92.42095178 -109 114 C-106.30138953 136.88149552 -96.85975488 156.04059268 -79 171 C-62.58097066 183.74037138 -41.84705043 190.04827361 -21.14453125 187.53125 C0.28341447 184.46379966 19.0851737 174.59090056 32.625 157.375 C45.1543484 139.96948284 51.31006443 119.62560968 48.50390625 98.21484375 C44.46530187 76.15082997 33.92079416 57.40365727 15.75 44.125 C-17.66940648 22.43030176 -60.68897674 26.11460687 -88.44921875 55.6015625 Z " fill="#000000" transform="translate(930,466)"/>
<path d="M0 0 C3.79529487 2.97469058 6.76204464 6.16113393 8.3125 10.8125 C8.45742123 12.21914926 8.55878931 13.6306133 8.62890625 15.04296875 C8.67080078 15.84541016 8.71269531 16.64785156 8.75585938 17.47460938 C8.79517578 18.30798828 8.83449219 19.14136719 8.875 20 C8.91818359 20.84498047 8.96136719 21.68996094 9.00585938 22.56054688 C9.11181518 24.64434433 9.2126502 26.72840103 9.3125 28.8125 C10.20710938 29.21339844 11.10171875 29.61429687 12.0234375 30.02734375 C25.5734543 36.30694083 34.96669009 44.52889453 41.4765625 58.26953125 C43.42565174 64.19877 43.30415951 70.67661797 40.6875 76.3125 C36.1165741 81.12400094 32.15250044 83.45524787 25.55078125 83.91015625 C20.70718189 83.69882993 17.36996591 81.66854383 13.6875 78.6875 C11.64383048 76.21358427 10.29731382 74.05823483 8.8125 71.25 C6.21183171 66.37273424 3.60003818 63.82918363 -1.5 61.5625 C-9.19030137 59.75301732 -14.96975832 60.69986681 -21.6875 64.8125 C-24.83673422 68.11919593 -26.55322751 70.44292059 -27 75 C-26.63918165 79.40198387 -25.60300796 82.52147873 -22.6875 85.8125 C-17.4181046 89.44722337 -12.20044734 90.41937127 -5.9375 90.8125 C9.5797248 92.19364757 22.09384995 97.53568507 32.98046875 108.90234375 C41.8624237 119.98619038 45.42361376 132.75602907 44.3125 146.8125 C42.48756493 158.9122796 36.65119069 169.98108248 26.9921875 177.65625 C14.30534958 186.8125 14.30534958 186.8125 8.3125 186.8125 C8.35890625 188.0190625 8.4053125 189.225625 8.453125 190.46875 C8.49067287 192.08330836 8.52706977 193.69789378 8.5625 195.3125 C8.59601563 196.10398437 8.62953125 196.89546875 8.6640625 197.7109375 C8.76029489 203.58111333 7.61825055 207.91495791 4.3125 212.8125 C-0.49539578 217.38586427 -4.59650947 218.22616876 -11.046875 218.16015625 C-15.37870152 217.58984181 -18.44272122 215.66728133 -21.6875 212.8125 C-24.81310182 208.67863953 -25.82395681 204.82479856 -25.78515625 199.703125 C-25.78193359 198.94902344 -25.77871094 198.19492187 -25.77539062 197.41796875 C-25.76701172 196.64066406 -25.75863281 195.86335937 -25.75 195.0625 C-25.74548828 194.26972656 -25.74097656 193.47695313 -25.73632812 192.66015625 C-25.72458565 190.71090492 -25.70665146 188.76169262 -25.6875 186.8125 C-26.28570557 186.64427734 -26.88391113 186.47605469 -27.50024414 186.30273438 C-39.52426536 182.82111499 -49.68269492 174.62103146 -55.80664062 163.69140625 C-59.07308989 157.40196977 -61.09777048 151.87691047 -59.6875 144.8125 C-57.89396165 139.53152596 -55.07750798 137.01354749 -50.6875 133.8125 C-45.5203841 132.09012803 -40.58150242 132.15688378 -35.4375 133.9375 C-29.32802816 138.10304898 -25.98863008 143.90910977 -23.6875 150.8125 C-21.39215742 151.94795562 -21.39215742 151.94795562 -18.6875 152.8125 C-17.91535156 153.15410156 -17.14320313 153.49570312 -16.34765625 153.84765625 C-10.50486967 155.96684609 -3.92417406 155.73769059 1.75 153.1875 C5.43410271 151.02394071 7.49720878 148.74563097 9.3125 144.8125 C10.15341761 140.43272079 9.68647981 137.56045962 7.6875 133.5625 C2.22080841 127.23264658 -2.78874964 125.93146062 -10.77905273 125.26904297 C-26.88195814 123.85130356 -40.35398398 118.61002821 -51.0625 106 C-59.50298022 94.70566888 -63.23768798 81.74837159 -61.2578125 67.78125 C-58.80584232 55.06733056 -52.64381815 44.45018697 -42.046875 36.94140625 C-37.07075052 33.67157582 -32.18223128 31.07023612 -26.6875 28.8125 C-26.64882813 27.1109375 -26.64882813 27.1109375 -26.609375 25.375 C-26.03694208 8.16194208 -26.03694208 8.16194208 -19.3125 1.4375 C-12.77372787 -2.61031132 -6.99603675 -3.09127205 0 0 Z " fill="#000000" transform="translate(445.6875,374.1875)"/>
<path d="M0 0 C0.84770877 -0.00297112 1.69541754 -0.00594224 2.56881446 -0.0090034 C5.41996559 -0.01770088 8.27107479 -0.01919953 11.12223816 -0.02069092 C13.1621815 -0.02531834 15.20212397 -0.03034289 17.24206543 -0.03573608 C22.7917001 -0.04886913 28.34132268 -0.05530677 33.89097047 -0.05974674 C37.35664359 -0.06267591 40.82231339 -0.06678041 44.28798485 -0.07125092 C55.12688711 -0.08492801 65.9657818 -0.09459372 76.80469209 -0.09845281 C89.32483185 -0.10293472 101.8448625 -0.12048799 114.36496907 -0.1494534 C124.0372324 -0.17105508 133.70946499 -0.18115627 143.38175219 -0.18249393 C149.16110753 -0.18354301 154.94036034 -0.18947278 160.71969032 -0.20731354 C166.15580173 -0.22376807 171.59173324 -0.22596241 177.02786064 -0.21717453 C179.02330634 -0.21640276 181.0187616 -0.22076521 183.01418304 -0.23063278 C185.7381048 -0.2433131 188.46138562 -0.23749678 191.18530273 -0.22705078 C192.36999349 -0.23913539 192.36999349 -0.23913539 193.57861739 -0.25146413 C199.10280567 -0.2019114 203.32800958 0.84861035 207.42765808 4.67559814 C212.006615 10.66346488 212.51761883 14.65069254 211.78312683 22.14044189 C210.07479433 27.48996309 206.65268613 30.50276394 201.78312683 33.14044189 C197.8427841 34.53346972 193.73671047 34.28548639 189.61131287 34.28088379 C188.78049501 34.28385491 187.94967716 34.28682603 187.093683 34.28988719 C184.3055838 34.2985691 181.51752755 34.30008201 178.72941589 34.30157471 C176.73197844 34.30620325 174.73454186 34.31122796 172.73710632 34.31661987 C167.30722747 34.32974258 161.87736099 34.33618861 156.44746876 34.34063053 C153.05497636 34.34356152 149.66248734 34.34766638 146.26999664 34.3521347 C135.65534679 34.36580941 125.04070466 34.37547615 114.42604661 34.3793366 C102.17364826 34.38381716 89.92136148 34.40136515 77.66899705 34.43033719 C68.19795447 34.45195497 58.72694329 34.46204093 49.2558763 34.46337771 C43.59943208 34.46442569 37.94309274 34.47033193 32.2866745 34.48819733 C26.96463032 34.50467954 21.64276984 34.5068327 16.32070923 34.49805832 C14.3696417 34.49728802 12.41856429 34.50162964 10.46752167 34.51151657 C7.79908823 34.52424357 5.13130471 34.5183552 2.46287537 34.50793457 C1.69515312 34.51599097 0.92743088 34.52404738 0.13644433 34.53234792 C-5.53828921 34.48070182 -11.42768563 33.66114104 -15.78428626 29.72390866 C-20.18309355 24.64002302 -20.56639078 20.33536096 -20.49812317 13.86700439 C-19.97150137 8.76169865 -17.3252467 6.14068142 -13.65437317 2.82794189 C-9.24384933 -0.22549769 -5.16246238 -0.00561615 0 0 Z " fill="#000000" transform="translate(643.2168731689453,148.85955810546875)"/>
<path d="M0 0 C1.43956204 -0.00542598 2.87911851 -0.01255132 4.31866455 -0.02124023 C8.21329627 -0.03941857 12.10750242 -0.03242948 16.00214124 -0.01972389 C20.08460431 -0.00956956 24.16703189 -0.01899613 28.24949646 -0.02526855 C35.10308347 -0.03253707 41.95649782 -0.02297737 48.81005859 -0.00390625 C56.72696081 0.01786975 64.64345106 0.01080282 72.56034333 -0.01121187 C79.3665025 -0.02937826 86.17253786 -0.03191843 92.97871345 -0.0214572 C97.03993509 -0.01523015 101.10096321 -0.01436495 105.16217232 -0.02760315 C108.97990788 -0.03917951 112.79711341 -0.03110397 116.61479187 -0.00802612 C118.01358092 -0.00274885 119.41241477 -0.00423607 120.81118584 -0.01307678 C133.9114932 -0.08822609 133.9114932 -0.08822609 138.80639648 4.51757812 C143.42920584 9.76509144 144.15970648 12.86512202 144.08764648 19.75585938 C143.56320293 24.90560369 140.92595306 27.53130209 137.18139648 30.83007812 C133.49548251 33.449017 131.53662623 33.64681115 127.03230286 33.66474915 C125.802789 33.67190445 124.57327515 33.67905975 123.3065033 33.68643188 C121.93643214 33.6892723 120.56636071 33.69198401 119.19628906 33.69458008 C117.75909256 33.70084391 116.32189768 33.70749063 114.88470459 33.7144928 C110.97332637 33.73191266 107.06196039 33.74245776 103.15055299 33.75069833 C100.70651871 33.7558476 98.26248824 33.76192343 95.81845665 33.76820946 C88.17088724 33.78726639 80.52332751 33.80149508 72.87573892 33.80982143 C64.04972661 33.81958936 55.22396539 33.84589504 46.39804155 33.88632232 C39.57586544 33.91649795 32.75376123 33.93129176 25.93151969 33.93460244 C21.85729222 33.93695176 17.78333285 33.94589611 13.70917702 33.97106361 C9.87351275 33.99437416 6.03829248 33.99856583 2.20257568 33.98830223 C0.79773671 33.98780744 -0.60712433 33.99411128 -2.01189613 34.00785828 C-15.30201275 34.13059508 -15.30201275 34.13059508 -21.19360352 29.51757812 C-25.14837788 24.54875905 -25.84092159 20.48192892 -25.57250977 14.16992188 C-24.80517585 8.79858444 -22.76865547 5.74735333 -18.42835999 2.35852051 C-12.74980681 -0.71495655 -6.27948749 -0.03975133 0 0 Z " fill="#000000" transform="translate(648.193603515625,232.482421875)"/>
<path d="M0 0 C0.96728027 0.54543457 1.93456055 1.09086914 2.93115234 1.65283203 C5.67323764 3.20897583 8.40079612 4.78781838 11.125 6.375 C11.79080078 6.75591797 12.45660156 7.13683594 13.14257812 7.52929688 C20.05421649 11.50014713 24.53979716 14.61939148 27.125 22.375 C27.6605774 28.69481328 26.84714868 33.14543908 23.125 38.375 C19.32131832 41.82485083 15.70287241 43.21899653 10.64453125 43.49804688 C1.80720231 43.06645639 -6.79507861 36.79219144 -14.1875 32.4375 C-15.24517578 31.82970703 -16.30285156 31.22191406 -17.39257812 30.59570312 C-24.71749597 26.311666 -30.79089987 22.65337405 -33.875 14.375 C-34.66595201 8.96835541 -33.87432969 5.02913228 -30.875 0.375 C-21.55494991 -10.70830281 -10.81468798 -6.23845023 0 0 Z " fill="#000000" transform="translate(250.875,341.625)"/>
<path d="M0 0 C6.96623826 6.19221179 11.13366651 15.3920212 15.625 23.4375 C16.20958984 24.47712891 16.79417969 25.51675781 17.39648438 26.58789062 C21.62991043 34.12760771 23.7107097 38.68007971 22.8125 47.5 C20.35682448 52.50230198 16.8154693 55.99851535 11.8125 58.5 C5.85548055 59.05713132 0.86041601 59.02180186 -4.1875 55.5 C-9.06897768 50.36573151 -12.37347969 44.3460712 -15.86352539 38.21362305 C-16.87667741 36.4345545 -17.89951091 34.66133081 -18.92382812 32.88867188 C-27.32662994 18.23184444 -27.32662994 18.23184444 -26.1875 10.5 C-24.33015737 4.68525118 -21.69443052 1.36819298 -16.1875 -1.5 C-10.61927652 -3.27274054 -5.222088 -2.45745318 0 0 Z " fill="#000000" transform="translate(324.1875,256.5)"/>
<path d="M0 0 C3.09824681 2.79597883 5.68730734 5.56211469 7.5625 9.3125 C7.68635518 12.37735268 7.75097776 15.41852058 7.765625 18.484375 C7.77132507 19.39954895 7.77702515 20.3147229 7.78289795 21.25762939 C7.79235526 23.19778281 7.79888483 25.13795235 7.80273438 27.078125 C7.81241573 30.03674688 7.84342206 32.99466697 7.875 35.953125 C7.88153252 37.83853754 7.88678201 39.72395506 7.890625 41.609375 C7.9029718 42.49083191 7.9153186 43.37228882 7.92803955 44.28045654 C7.90967046 49.38496906 7.40193713 52.89238042 4.5625 57.3125 C0.46220714 61.19698797 -3.14707035 63.05320608 -8.75 63.6875 C-14.64285601 63.08822651 -18.84260798 61.03007602 -22.875 56.6875 C-24.92063931 53.57812825 -25.565547 51.92098928 -25.61450195 48.24926758 C-25.63375481 46.99204643 -25.63375481 46.99204643 -25.65339661 45.70942688 C-25.66078354 44.80113632 -25.66817047 43.89284576 -25.67578125 42.95703125 C-25.683853 42.02203293 -25.69192474 41.08703461 -25.70024109 40.123703 C-25.7140882 38.14067441 -25.72480754 36.15762192 -25.73266602 34.17456055 C-25.74983335 31.15431873 -25.79370827 28.13518449 -25.83789062 25.11523438 C-25.84802163 23.18750804 -25.85653645 21.2597724 -25.86328125 19.33203125 C-25.88078934 18.43386185 -25.89829742 17.53569244 -25.91633606 16.61030579 C-25.89591828 10.65081047 -24.9243796 7.18673849 -21.4375 2.3125 C-15.04839677 -2.77270461 -7.40694259 -3.63613546 0 0 Z " fill="#000000" transform="translate(434.4375,226.6875)"/>
</svg>
